<?xml version="1.0" encoding="utf-8"?>
<!-- Generator: Adobe Illustrator 26.3.1, SVG Export Plug-In . SVG Version: 6.00 Build 0)  -->
<svg version="1.1" id="Camada_1" xmlns="http://www.w3.org/2000/svg" xmlns:xlink="http://www.w3.org/1999/xlink" x="0px" y="0px"
	 viewBox="0 0 416 112" style="enable-background:new 0 0 416 112;" xml:space="preserve">
<style type="text/css">
	.st0{fill:#FFB643;}
</style>
<g>
	<path class="st0" d="M90.4,49.3c8,0,16-0.2,24,0.1c3.3,0.1,4.9-0.7,5.8-4.1c2.2-8.3,5-16.4,7.9-25.6c2.9,9.3,5.6,17.7,8,26.1
		c0.8,2.7,2,3.8,5,3.7c8.2-0.2,16.5-0.1,25.9-0.1c-2.6,2-4.4,3.5-6.2,4.9c-5.2,3.9-10.3,8-15.5,11.8c-1.8,1.3-2,2.5-1.4,4.5
		c2.5,7.6,4.8,15.3,7.2,22.9c0.3,0.9,0.5,1.9,1,3.9c-8.4-6.4-16-12.2-23.9-18.1c-7.7,5.8-15.3,11.7-23.7,18c0.5-2.2,0.8-3.6,1.2-5
		c2.2-7,4.2-14.1,6.7-21.1c0.9-2.7,0.2-4.1-1.9-5.6c-6.8-5-13.5-10.2-20.3-15.4C90.2,49.8,90.3,49.5,90.4,49.3z"/>
	<path class="st0" d="M322.8,50c-6.9,5.2-13.7,10.6-20.6,15.7c-2,1.5-2.3,2.8-1.6,5.1c2.7,8.4,5.3,16.9,7.3,25.8
		c-7.6-5.8-15.3-11.6-23.1-17.5c-7.7,5.9-15.4,11.7-24,18.2c1-3.5,1.7-6,2.4-8.4c1.6-5.2,3-10.5,5-15.6c1.5-4,1.1-6.5-2.8-9
		c-6.5-4.3-12.5-9.4-19.7-14.9c9.4,0,17.6-0.1,25.8,0.1c3,0.1,4.4-0.7,5.3-3.8c2.3-8.4,5.1-16.7,8-26c2.9,9.5,5.7,18,8.1,26.5
		c0.7,2.5,1.8,3.4,4.5,3.3c8.4-0.2,16.7-0.1,25.1-0.1C322.6,49.5,322.7,49.8,322.8,50z"/>
	<path class="st0" d="M12.1,49.3c8,0,15.9-0.2,23.9,0.1c3.8,0.2,5.3-1.2,6.2-4.7c1.8-6.9,4.1-13.6,6.2-20.4c0.4-1.2,0.8-2.3,1.6-4.3
		c3.2,10.3,6.2,19.7,9.1,29.3c9.5,0,18.9,0,28.4,0c0.3,0.4,0.7,0.8,1,1.2c-0.9,0.4-1.9,0.6-2.6,1.2c-6.2,4.7-12.3,9.5-18.6,14.1
		c-1.9,1.4-2.4,2.7-1.6,5.1c2.8,8.4,5.3,16.9,7.3,25.9c-7.6-5.8-15.2-11.6-23.1-17.6c-7.7,5.9-15.5,11.8-24.1,18.3
		c2.7-8.7,4.7-16.5,7.5-24.1c1.7-4.5,0.6-6.8-3.1-9.3c-6.3-4.4-12.3-9.2-18.4-13.9C11.9,49.8,12,49.5,12.1,49.3z"/>
	<path class="st0" d="M401.1,50.1c-6.9,5.3-13.7,10.6-20.7,15.7c-1.8,1.4-2.3,2.5-1.5,4.8c2.8,8.5,5.3,17.2,8.3,26.8
		c-8.5-6.5-16.1-12.3-24.1-18.3c-7.7,5.9-15.4,11.7-24.1,18.3c2.8-9.1,5.1-17.2,7.9-25.1c1.2-3.4,0.7-5.4-2.3-7.5
		c-6.6-4.7-13-9.8-20.3-15.3c10.4,0,19.9,0,29.5,0c3-9.7,6-19.1,9.3-29.7c1.4,4.5,2.6,7.9,3.6,11.3c1.6,5.1,3.3,10.2,4.7,15.3
		c0.6,2.3,1.6,3,3.9,2.9c8.5-0.1,17-0.1,25.5-0.1C400.9,49.5,401,49.8,401.1,50.1z"/>
	<path class="st0" d="M206.5,79.1c-8,6-15.5,11.8-24,18.3c1.6-5.3,2.9-9.5,4.2-13.8c1.3-4.3,2.5-8.6,4-12.7c0.9-2.3,0.4-3.6-1.6-5.1
		c-6.9-5.1-13.7-10.4-21.4-16.2c10.4,0,19.8,0,29.4,0c3-9.7,6-19,8.9-28.4c0.3,0,0.6,0,0.8,0c2.9,9.4,5.9,18.7,8.8,28.2
		c9.6,0,19,0,28.4,0c0.3,0.4,0.7,0.8,1,1.2c-0.9,0.4-1.8,0.7-2.6,1.2c-6.2,4.7-12.3,9.5-18.6,14c-1.9,1.4-2.5,2.6-1.7,5
		c2.8,8.4,5.3,16.9,7.4,26C222,90.8,214.3,85,206.5,79.1z"/>
</g>
</svg>
