<?xml version="1.0" encoding="utf-8"?>
<!-- Generator: Adobe Illustrator 26.3.1, SVG Export Plug-In . SVG Version: 6.00 Build 0)  -->
<svg version="1.1" id="Camada_1" xmlns="http://www.w3.org/2000/svg" xmlns:xlink="http://www.w3.org/1999/xlink" x="0px" y="0px"
	 viewBox="0 0 250 150" style="enable-background:new 0 0 250 150;" xml:space="preserve">
<style type="text/css">
	.st0{fill:#88DD7F;}
	.st1{fill:#FFFFFF;}
	.st2{fill:#88DD7E;}
	.st3{fill:#FCFCFC;}
</style>
<path class="st0" d="M125.9,20.7c0.2-1,0.7-1.8,1.7-2.1c0.1,0,0.2,0,0.3-0.1c0.4,0,0.8,0,1.2,0c0.4,0.2,0.8,0.3,1.1,0.6
	c0.5,0.4,0.8,1,1,1.7c0,0.2,0,0.5,0,0.7c-0.2,1-0.8,1.7-1.8,2.1c-0.1,0-0.2,0-0.4,0.1c-0.3,0-0.5,0-0.8,0c-1.1-0.1-2.1-1.1-2.2-2.3
	C125.9,21.1,125.9,20.9,125.9,20.7z"/>
<path class="st1" d="M16.3,83c-0.1,0.1-0.3,0.1-0.4,0.1c-1.2,0-2.4,0-3.6,0c0-0.1,0-0.1,0-0.2c1.1,0,2.1,0,3.2,0
	C15.7,82.9,16,83,16.3,83z"/>
<path class="st0" d="M138.7,68.8c0,0.3,0,0.6,0.1,0.9c0.1,0.2,0,0.4,0.1,0.6c0,0.1,0,0.2,0,0.3c0.1,0.1,0,0.3,0.1,0.4
	c0,0.1,0,0.2,0,0.4c0.1,0.2,0,0.4,0.1,0.6c0,0.1,0,0.3,0,0.4c0.1,0.2,0,0.4,0.1,0.6c0,0.2,0,0.3,0,0.5c0.1,0.3,0,0.7,0.1,1
	c0,0.3,0,0.5,0,0.8c0.1,0.5,0,1,0.1,1.6c0,0.7,0,1.5,0,2.2c-0.1,0.5,0,1-0.1,1.6c0,0.3,0,0.5,0,0.8c-0.1,0.3,0,0.7-0.1,1
	c0,0.2,0,0.3,0,0.5c-0.1,0.2,0,0.4-0.1,0.6c0,0.2,0,0.3,0,0.5c-0.1,0.2,0,0.4-0.1,0.6c0,0.1,0,0.2,0,0.3c-0.1,0.1,0,0.3-0.1,0.4
	c0,0.1,0,0.3,0,0.4c-0.1,0.2,0,0.3-0.1,0.5c0,0.1,0,0.2,0,0.2c-0.1,0.1,0,0.3-0.1,0.4c0,0.1,0,0.2,0,0.3c-0.1,0.1,0,0.3-0.1,0.4
	c-0.2,1.1-0.4,2.3-0.5,3.4c-0.3,2-0.8,4-1.3,5.9c-0.8,3-1.8,6-3,8.9c-1,2.5-2.2,5-3.5,7.4c-0.1,0.2-0.2,0.2-0.4,0.1
	c-0.6-0.3-1.2-0.6-1.7-1c-0.1-0.1-0.2-0.1-0.1-0.3c1.1-1.9,2-3.9,2.9-5.9c0.7-1.5,1.3-3,1.8-4.6c0.7-2.1,1.4-4.2,1.9-6.4
	c0.3-1.1,0.5-2.2,0.7-3.3c0.2-0.9,0.3-1.8,0.5-2.7c0.1-0.6,0.2-1.2,0.2-1.8c0.1-0.1,0-0.3,0.1-0.4c0-0.1,0-0.1,0-0.2
	c0.1-0.1,0-0.3,0.1-0.4c0-0.1,0-0.1,0-0.2c0.1-0.2,0-0.3,0.1-0.5c0-0.1,0-0.2,0-0.3c0.1-0.1,0-0.3,0.1-0.4c0-0.1,0-0.2,0-0.3
	c0.1-0.2,0-0.4,0.1-0.6c0-0.1,0-0.2,0-0.4c0.1-0.2,0-0.3,0.1-0.5c0-0.2,0-0.3,0-0.5c0.1-0.3,0-0.7,0.1-1c0-0.2,0-0.4,0-0.5
	c0.1-0.3,0-0.7,0.1-1c0.1-1.4,0.1-2.9,0-4.3c-0.1-0.4,0-0.7-0.1-1.1c0-0.2,0-0.4,0-0.6c-0.1-0.3,0-0.6-0.1-0.9c0-0.1,0-0.3,0-0.4
	c-0.1-0.2,0-0.4-0.1-0.6c0-0.1,0-0.2,0-0.4c-0.1-0.2,0-0.4-0.1-0.6c0-0.1,0-0.2,0-0.3c-0.1-0.1,0-0.3-0.1-0.4c0-0.1,0-0.2,0-0.3
	c-0.1-0.2,0-0.3-0.1-0.5c0-0.1,0-0.1,0-0.2c-0.1-0.1,0-0.3-0.1-0.4c0-0.1,0-0.1,0-0.2c-0.1-0.1,0-0.3-0.1-0.4
	c-0.1-0.9-0.2-1.7-0.4-2.6c-0.3-1.6-0.6-3.1-1-4.7c-0.2-0.7-0.3-1.3-0.5-2c0-0.1,0-0.1-0.1-0.1c-0.2,0-0.3,0-0.5,0
	c-0.2-0.1-0.4-0.3-0.6-0.4c-0.2-0.1-0.5-0.1-0.7,0c-0.6,0.3-0.9,0.2-1.1-0.4c-0.1-0.4-0.4-0.5-0.8-0.4c-0.4,0-0.7,0-0.9-0.5
	c-0.1-0.2,0-0.4-0.1-0.6c-0.1-0.3-0.3-0.4-0.6-0.5c-0.5-0.2-0.7-0.5-0.5-1c0.2-0.5,0.1-0.6-0.3-1c-0.1-0.1-0.2-0.2-0.2-0.4
	c0-0.1,0-0.3,0-0.4c0.1-0.2,0.2-0.4,0.3-0.5c0.3-0.2,0.2-0.5,0.1-0.8c-0.3-0.6-0.2-0.9,0.4-1.2c0.2-0.1,0.4-0.2,0.4-0.4
	c0.1-0.1,0.1-0.3,0-0.4c-0.1-0.5,0.3-0.8,0.8-0.8c0.3,0,0.6-0.1,0.7-0.4c0.2-0.7,0.4-0.8,1.2-0.6c0,0,0.1,0,0.1,0
	c0.1,0.1,0.3,0.1,0.4,0c0.1-0.1,0.3-0.2,0.4-0.3c0.2-0.3,0.7-0.4,1-0.1c0.4,0.4,0.7,0.5,1.2,0.2c0.4-0.2,0.8,0,1,0.4
	c0.2,0.4,0.4,0.5,0.8,0.5c0.6,0,0.9,0.2,0.9,0.8c0,0.4,0.2,0.6,0.5,0.7c0.5,0.1,0.8,0.6,0.5,1.1c-0.2,0.4,0,0.6,0.2,0.9
	c0.4,0.4,0.5,0.7,0.1,1.1c-0.3,0.3-0.4,0.7-0.1,1.1c0.2,0.4,0.1,0.8-0.3,1c-0.2,0.1-0.5,0.1-0.5,0.4c-0.1,0.3,0,0.5-0.1,0.8
	c-0.1,0.2-0.2,0.3-0.4,0.5c-0.2,0.1-0.4,0-0.6,0.1c-0.5,0.1-0.7,0.3-0.5,0.8c0.6,2.2,1.1,4.5,1.5,6.8c0.1,0.6,0.2,1.1,0.3,1.7
	c0.1,0.1,0,0.3,0.1,0.4c0,0.4,0.1,0.9,0.2,1.3C138.7,68.5,138.6,68.7,138.7,68.8z"/>
<path class="st1" d="M153.2,84.6c0,0.1,0,0.2,0,0.3c0,3.6,0,7.3,0,10.9c0,0.2-0.1,0.4,0.3,0.4c3,0,6,0,9,0c0.1,0.6,0.1,1.1,0,1.7
	c-0.1,0-0.2,0-0.3,0c-2.9,0-5.7,0-8.6,0c-0.3,0-0.4,0-0.4,0.3c0,4.3,0,8.6,0,13c-0.5,0.1-1,0-1.6,0c-0.1,0-0.1-0.1,0-0.1
	c0.3,0,0.7,0,1,0c0.6,0,0.5,0.1,0.5-0.5c0-3.7,0-7.4,0-11.1c0-0.4,0-0.8,0-1.2c0,4.1,0,8.2,0,12.2c0,0.1,0,0.2,0,0.3
	c0,0.2-0.1,0.2-0.2,0.2c-0.3,0-0.6,0-1,0c-0.2,0-0.3-0.1-0.3-0.3c0-0.1,0-0.3,0-0.4c0-8.9,0-17.8,0-26.6c0-0.1,0-0.1,0-0.2
	c0-0.5,0.1-0.6,0.6-0.6c3.3,0,6.6,0,9.9,0c0.5,0,0.5,0,0.5,0.5c0,0.2,0,0.4,0,0.6c0,0.4,0,0.4-0.4,0.5c-0.2,0-0.3,0-0.5,0
	c-2.8,0-5.5,0-8.3,0C153.3,84.6,153.3,84.6,153.2,84.6z"/>
<path class="st1" d="M86.4,111.8c-5.4,0-9.6-4.3-9.4-9.5c0.1-4.7,3.8-8.7,8.5-9.1c2.8-0.3,5.3,0.6,7.4,2.6c0.2,0.2,0.2,0.3,0,0.4
	c-0.3,0.3-0.6,0.7-0.9,0.8c-0.4,0.1-0.6-0.4-1-0.7c-2.4-1.7-5-2.1-7.7-0.9c-2.7,1.2-4.3,3.4-4.6,6.4c-0.3,3.2,1.1,5.8,4,7.4
	c2.8,1.6,5.6,1.3,8.3-0.5c0.2-0.2,0.5-0.3,0.6-0.5c0.3-0.3,0.4-0.3,0.7,0c0.2,0.2,0.4,0.4,0.6,0.6c0.2,0.2,0.2,0.3,0,0.4
	c-1.4,1.3-3.1,2.2-5,2.5C87.3,111.8,86.8,111.8,86.4,111.8z"/>
<path class="st1" d="M51.7,111.1c0-0.2,0-0.3,0-0.5c0-5,0-9.9,0-14.9c0-0.4-0.1-0.5-0.5-0.4c-0.7,0-1.5,0-2.2,0
	c-0.2,0-0.3-0.1-0.3-0.3c0-0.4,0-0.8,0-1.2c0.9-0.1,1.9,0,2.8,0c0-0.1-0.1,0-0.2,0c-0.7,0-1.5,0-2.2,0c-0.1,0-0.3,0-0.4,0
	c0.3-0.1,0.5-0.1,0.8-0.1c0.6,0,1.2,0,1.8,0c0.3,0,0.4-0.1,0.4-0.4c0-1.9,0-3.8,0-5.7c0-0.3,0.1-0.4,0.3-0.5
	c0.4-0.2,0.7-0.4,1.1-0.6c0.1,0.1,0.1,0.2,0.1,0.3c0,2.2,0,4.4,0,6.6c0,0,0,0.1,0,0.1c0.1,0,0-0.1,0-0.2c0-2.2,0-4.3,0-6.5
	c0-0.1,0-0.3-0.1-0.4c0.1-0.1,0.1-0.1,0.2,0c0,0.1,0,0.2,0,0.3c0,2.2,0,4.4,0,6.5c0,0.3,0.1,0.4,0.4,0.4c0.9,0,1.7,0,2.6,0
	c0.1,0,0.3-0.1,0.4,0.1c-0.9,0.1-1.9,0-2.8,0c-0.1,0-0.3,0-0.4,0c0,0,0,0.1,0,0c1.1-0.1,2.1-0.1,3.2,0c0,0.4,0,0.8,0,1.2
	c0,0.2-0.1,0.3-0.3,0.3c-0.9,0-1.8,0-2.7,0c-0.3,0-0.4,0.1-0.4,0.4c0,5,0,10,0,15.1c0,0.4-0.1,0.5-0.5,0.5
	C52.5,111.2,52.1,111.3,51.7,111.1c0.1,0,0.3,0.1,0.5,0c0.3,0,0.8,0.1,1-0.1c0.2-0.2,0.1-0.7,0.1-1c0-2.8,0-5.6,0-8.4
	c0-1.9,0-3.9,0-5.8c0-0.1,0-0.3,0-0.3c0,0.1,0,0.2,0,0.3c0,4.9,0,9.8,0,14.7c0,0.6,0.1,0.5-0.5,0.5
	C52.4,111.1,52.1,111.1,51.7,111.1z"/>
<path class="st0" d="M126.9,35.5c-0.1,0.9-0.5,1.8-1.2,2.4c-0.7,0.6-1.4,1-2.4,1.1c-0.2,0-0.4,0-0.6,0c-1.6-0.1-3-1.3-3.4-2.7
	c-0.1-0.3-0.1-0.5-0.2-0.8c0-0.2,0-0.4,0-0.6c0.1-1.8,1.5-3.3,3.4-3.5c0.3,0,0.5,0,0.8,0c1.2,0.2,2.2,0.8,2.9,1.8
	c0.3,0.5,0.5,1.1,0.6,1.7C126.9,35.1,126.9,35.3,126.9,35.5z"/>
<path class="st0" d="M130.7,28.3C130.7,28.3,130.7,28.3,130.7,28.3c0.3,0.1,0.5,0,0.8,0.1c0.6,0.2,1.2,0.4,1.7,0.8
	c0.7,0.6,1.2,1.3,1.4,2.2c0,0.1,0.1,0.2,0.1,0.3c0.1,0.1,0,0.3,0.1,0.4c0,0.1,0,0.2,0,0.4c-0.1,0.1,0,0.3-0.1,0.4
	c-0.2,0.8-0.5,1.5-1.1,2.1c-1.3,1.3-3.3,1.6-4.9,0.5c-1-0.7-1.6-1.8-1.7-3.1c0-1.1,0.4-2,1-2.8c0.5-0.5,1.1-0.9,1.8-1
	c0.1,0,0.2-0.1,0.3-0.1C130.4,28.3,130.5,28.4,130.7,28.3z"/>
<path class="st0" d="M118.9,68.9c0-0.1,0-0.3,0-0.4c0.1-0.1,0-0.3,0.1-0.4c0.3-2.2,2.4-3.6,4.6-3.1c1.9,0.4,3.1,2.2,3,3.9
	c-0.1,1.9-1.5,3.3-3.4,3.6c-0.3,0-0.6,0-0.8,0c-1.7-0.2-2.9-1.4-3.3-2.9c0-0.1,0-0.2,0-0.3C118.9,69.1,119,69,118.9,68.9z"/>
<path class="st0" d="M154.1,52.6c0.9,0.1,1.6,0.4,2.3,1c0.7,0.6,1.1,1.4,1.2,2.3c0,0.3,0,0.6,0,0.9c-0.3,1.4-1,2.5-2.4,3.1
	c-0.3,0.1-0.7,0.3-1.1,0.3c-0.3,0-0.5,0-0.8,0c-1.8-0.1-3.2-1.7-3.4-3.2c-0.3-2.4,1.2-4.3,3.6-4.5C153.8,52.6,154,52.6,154.1,52.6z"
	/>
<path class="st0" d="M154.2,42.9c0.7,0.2,1.3,0.4,1.9,0.9c0.7,0.7,1.1,1.5,1.3,2.4c0,0.3,0,0.6,0,0.8c-0.1,0.7-0.4,1.4-0.8,1.9
	c-0.6,0.8-1.4,1.2-2.3,1.4c-0.1,0.1-0.3,0-0.4,0.1c-1.2,0.1-2.3-0.3-3.1-1.2c-0.6-0.7-1-1.4-1-2.4c0-0.2,0-0.4,0-0.5
	c0.1-1.7,1.3-3.2,3.2-3.5C153.4,42.9,153.8,42.9,154.2,42.9z"/>
<path class="st0" d="M141.2,29.2c0.8,0.2,1.6,0.5,2.1,1.1c1,1.1,1.4,2.3,1,3.7c-0.4,1.4-1.3,2.3-2.7,2.6c-1.3,0.3-2.4,0.1-3.4-0.8
	c-0.7-0.6-1.1-1.4-1.3-2.3c0-0.4,0-0.8,0-1.2c0.1-0.8,0.4-1.4,0.9-2c0.6-0.7,1.4-1.1,2.3-1.2C140.5,29.1,140.8,29.1,141.2,29.2z"/>
<path class="st0" d="M145.7,64.8c0.1-1,0.5-1.9,1.3-2.6c0.8-0.7,1.7-1,2.7-0.9c1.7,0.1,3,1.2,3.5,2.8c0.1,0.2,0.1,0.4,0.1,0.6
	c0.1,0.2,0,0.4,0,0.6c-0.2,1.7-1.3,3.1-3.3,3.5c-0.4,0-0.7,0-1.1,0c-1.2-0.1-2.1-0.7-2.7-1.8c-0.3-0.5-0.5-1.1-0.6-1.7
	C145.6,65.3,145.6,65.1,145.7,64.8z"/>
<path class="st0" d="M114.4,48c1.3,0.2,2.3,0.8,2.9,1.9c0.3,0.4,0.4,0.9,0.5,1.4c0,0.4,0,0.7,0,1.1c-0.3,1.6-1.2,2.6-2.8,3.1
	c-0.2,0.1-0.5,0.1-0.8,0.2c-0.2,0-0.4,0-0.5,0c-2.2-0.1-3.4-1.8-3.6-3.3c-0.2-2.4,1.4-4.1,3.4-4.3C113.8,48,114.1,48,114.4,48z"/>
<path class="st0" d="M148.3,42c-1.7-0.2-3-1.6-3.3-3.1c-0.1-0.1,0-0.3-0.1-0.4c-0.1-1.2,0.3-2.3,1.2-3.1c1.7-1.6,4.7-1.2,5.9,0.9
	c0.2,0.4,0.4,0.8,0.5,1.3c0.1,0.4,0,0.8,0,1.2c-0.2,0.6-0.4,1.2-0.8,1.7c-0.7,0.8-1.5,1.3-2.5,1.5C149,42,148.7,42,148.3,42z"/>
<path class="st0" d="M120.3,42.8c-0.2,1.2-0.7,2.1-1.7,2.8c-0.5,0.3-1,0.5-1.5,0.6c-0.4,0.1-0.8,0.1-1.2,0c-1.7-0.2-3.1-1.7-3.2-3.4
	c0-0.2,0-0.5,0-0.7c0.1-1.8,1.6-3.2,3.3-3.4c2.1-0.3,4,1.3,4.3,3.1c0,0.1,0,0.2,0.1,0.3C120.3,42.3,120.3,42.5,120.3,42.8z"/>
<path class="st0" d="M116.1,65.2c-1.8-0.1-3.1-1.3-3.5-2.8c0-0.1,0-0.2-0.1-0.3c-0.1-0.4,0-0.9,0-1.3c0.1-1.4,1.4-2.8,2.9-3.1
	c0.2,0,0.5-0.1,0.7-0.1c0.1,0,0.3,0,0.4,0c1.8,0.1,3.2,1.4,3.5,3c0,0.1,0,0.1,0.1,0.2c0.1,0.1,0,0.3,0.1,0.4c0,0.1,0,0.3,0,0.4
	c-0.1,0.1,0,0.3-0.1,0.4c-0.2,0.8-0.5,1.5-1,2c-0.7,0.7-1.5,1.1-2.5,1.2C116.3,65.2,116.2,65.2,116.1,65.2z"/>
<path class="st1" d="M233.3,106c-0.1-1-0.7-1.8-1.3-2.6c-0.8-1-1.6-2-2.1-3.2c-0.3-0.6-0.4-1.3-0.4-1.9c0-0.3,0-0.5,0-0.8
	c0-0.9,0.3-1.7,0.8-2.5c0.8-1.1,1.9-1.7,3.2-1.9c0.1,0,0.1,0,0.2,0c0.7-0.1,0.7-0.1,0.7,0.6c0,0.3,0.1,0.7-0.1,1
	c-1.7-0.1-3,1-3.2,2.5c-0.1,0.4-0.1,0.7,0,1.1c0,0.6,0.3,1.1,0.5,1.6c0.5,0.9,1.2,1.7,1.8,2.5c0.8,1,1.3,2.1,1.4,3.3
	c0,0.4,0.1,0.8,0,1.2c-0.2,0.9-0.4,1.8-1,2.6c-0.8,1.1-2,1.7-3.4,1.9c-0.3,0-0.6,0-0.9,0c-0.3,0-0.4-0.1-0.4-0.4c0-0.3,0-0.7,0-1
	c0-0.3,0.1-0.3,0.3-0.3c0.3,0,0.7,0.1,1,0c1.2-0.2,2.3-1,2.5-2.4c0-0.1,0.1-0.2,0.1-0.4C233.4,106.7,233.4,106.4,233.3,106z"/>
<path class="st1" d="M203.9,94.8c-1.4,0.1-3,1.2-3.5,2.5c0,0,0,0.1-0.1,0.1c-0.1,0.2,0,0.4,0,0.5c0,4.1,0,8.2,0,12.3
	c0,0.1,0,0.3,0,0.4c0,0.4-0.1,0.5-0.5,0.5c-1.1,0.1-1.1,0.1-1.1-1c0-5.2,0-10.5,0-15.7c0-0.7,0-0.7,0.7-0.7c0,0,0,0,0,0
	c0.8,0,0.7,0,0.7,0.7c0-0.2,0-0.4,0-0.6c0.2-0.1,0.1,0.1,0.1,0.1c0,0.3-0.1,0.5,0,0.8c0.8-0.8,1.7-1.3,2.8-1.5
	c0.3,0,0.5-0.1,0.8-0.1c0.8-0.1,0.8-0.1,0.8,0.7c0,0.3,0.1,0.6,0,1l0,0C204.5,94.9,204.2,94.7,203.9,94.8z"/>
<path class="st1" d="M62.4,94.8c0.5-0.4,1-0.8,1.6-1.1c0.8-0.4,1.7-0.6,2.6-0.6c0.2,0,0.3,0,0.3,0.3c0,0.4,0,0.7,0,1.1
	c0,0.2,0,0.3-0.2,0.3c-1.7,0-3.1,0.8-4,2.3c-0.3,0.2-0.2,0.4-0.2,0.7c0,1.4,0,2.8,0,4.3c0,2.9,0,5.7,0,8.6c0,0.5,0,0.5-0.5,0.5
	c-1.1,0-0.9,0.1-0.9-0.9c0-5.3,0-10.6,0-15.8c0-0.6,0-0.6,0.6-0.6c0.8,0,0.8,0,0.8,0.8C62.3,94.6,62.3,94.7,62.4,94.8z"/>
<path class="st2" d="M143,67.4c1.4,0.2,2.4,1,2.7,2.5c0,0.2,0,0.5,0,0.7c-0.3,1.4-1.1,2.2-2.5,2.5c-0.2,0-0.5,0-0.7,0
	c-1.2-0.1-2.4-1.2-2.5-2.7c0-0.1,0-0.3,0-0.4c0.1-1.4,1.1-2.5,2.7-2.7C142.7,67.3,142.8,67.3,143,67.4z"/>
<path class="st0" d="M129.1,72.1C129.1,72.1,129.1,72.1,129.1,72.1c0.1-0.2,0-0.4,0.1-0.5c0.2-1,0.9-2,2.3-2.2c0.3,0,0.5,0,0.8,0
	c0.6,0.1,1.1,0.3,1.5,0.8c0.8,0.8,1,1.9,0.6,2.9c-0.4,1-1.6,1.6-2.5,1.7c-1.3,0.1-2.6-1.1-2.7-2.2C129.1,72.4,129.2,72.3,129.1,72.1
	z"/>
<path class="st0" d="M118.3,76.4c0.8,0.2,1.5,0.5,1.9,1.3c0.9,1.5,0.1,3.5-1.9,3.9c-0.2,0-0.5,0-0.7,0c-1.2-0.1-2.2-1.2-2.3-2.4
	c-0.1-1.4,0.8-2.6,2.3-2.8C117.9,76.4,118.1,76.4,118.3,76.4z"/>
<path class="st0" d="M108.3,38.6c-0.1,1.4-0.8,2.4-2,2.7c-1.3,0.3-2.5-0.3-3-1.6c-0.7-1.7,0.5-3.5,2.3-3.5c1.1,0,2.1,0.6,2.5,1.7
	c0,0.1,0.1,0.2,0.1,0.3C108.3,38.3,108.2,38.5,108.3,38.6z"/>
<path class="st0" d="M105.4,53.9c-0.2,1.2-0.9,1.9-2,2.3c-0.1,0.1-0.3,0-0.4,0.1c-0.7,0-1.3-0.1-1.8-0.6c-0.5-0.4-0.9-1-0.9-1.7
	c0-0.2,0-0.5,0-0.7c0.1-1.2,1.1-2.2,2.4-2.2c1.2-0.1,2.4,0.8,2.6,1.9c0,0.1,0.1,0.3,0.1,0.4C105.4,53.6,105.4,53.8,105.4,53.9z"/>
<path class="st0" d="M109.8,68.6c-0.2,0.8-0.6,1.4-1.3,1.8c-0.8,0.5-1.9,0.5-2.7-0.1c-0.6-0.5-1-1.1-1.1-1.9c0-0.2,0-0.4,0-0.5
	c0.1-1.1,1-2.2,2.5-2.3c1,0,2.2,0.5,2.6,1.8c0,0.1,0.1,0.2,0.1,0.4C109.8,68.1,109.8,68.3,109.8,68.6z"/>
<path class="st0" d="M167.8,57.4c-0.3,1-0.8,1.7-1.8,2c-0.1,0-0.3,0-0.4,0.1c-0.2,0-0.5,0-0.7,0c-1.6-0.2-2.3-1.5-2.3-2.6
	c0-1.3,0.8-2.3,2.3-2.5c0.2,0,0.5,0,0.7,0c0.8,0.2,1.5,0.5,1.9,1.3c0.1,0.3,0.2,0.5,0.3,0.8C167.8,56.8,167.8,57.1,167.8,57.4z"/>
<path class="st0" d="M128.1,59.3c-0.2,0.8-0.6,1.4-1.3,1.8c-1,0.6-2.3,0.4-3.1-0.5c-0.4-0.4-0.7-0.9-0.7-1.5c0-0.2,0-0.4,0-0.5
	c0.1-1.2,1.1-2.2,2.4-2.3c1-0.1,2.2,0.5,2.6,1.8c0,0.1,0.1,0.2,0.1,0.4C128.2,58.7,128.2,59,128.1,59.3z"/>
<path class="st0" d="M147.8,78c0.9,0.2,1.6,0.6,2,1.5c0.7,1.4-0.1,3.2-1.7,3.6c-0.1,0-0.1,0.1-0.2,0.1c-0.3,0.1-0.5,0-0.8,0
	c-0.9,0-1.8-0.8-2.1-1.8c-0.4-1.3,0.4-2.7,1.4-3.1c0.2-0.1,0.5-0.1,0.8-0.2C147.4,77.9,147.6,77.9,147.8,78z"/>
<path class="st0" d="M166.4,42.4c-0.2,0.8-0.7,1.5-1.6,1.9c-0.2,0.1-0.4,0.1-0.5,0.2c-0.3,0.1-0.6,0-0.8,0c-1-0.1-1.7-0.7-2-1.6
	c-0.4-0.9-0.2-1.8,0.3-2.6c0.4-0.6,1.1-0.9,1.8-1c0.2,0,0.4,0,0.5,0c0.8,0.2,1.5,0.5,1.9,1.3c0.3,0.5,0.3,0.9,0.4,1.4
	C166.4,42.1,166.5,42.2,166.4,42.4z"/>
<path class="st0" d="M132.5,86L132.5,86L132.5,86c-0.2-0.1-0.3,0-0.4-0.1c-1.1-0.1-2.2-1.2-2.2-2.6c0.1-1.1,0.6-1.9,1.5-2.3
	c1-0.5,2.1-0.3,2.9,0.5c1.3,1.3,0.9,3.5-1,4.3c-0.1,0-0.2,0.1-0.3,0.1C132.9,86.1,132.7,86,132.5,86z"/>
<path class="st0" d="M143.7,54.4c-1.3-0.1-2.2-1.2-2.3-2.2c-0.2-1.4,0.7-2.6,2-2.9c0.1,0,0.2,0,0.3-0.1c0.2,0,0.5,0,0.7,0
	c0.6,0.1,1.2,0.4,1.6,0.9c0.7,0.8,0.9,1.7,0.4,2.7c-0.4,0.9-1.1,1.4-2,1.6C144.1,54.5,143.9,54.5,143.7,54.4z"/>
<path class="st0" d="M114.7,29.5c-1-0.1-1.8-1.1-2-2c0-0.3,0-0.7,0-1c0.2-1.1,0.9-1.7,2-2c0.1-0.1,0.3,0,0.4-0.1
	c1.4,0,2.3,0.7,2.7,1.8c0.4,1.3-0.3,2.7-1.6,3.2c-0.3,0.1-0.7,0.2-1.1,0.2C115,29.5,114.8,29.6,114.7,29.5z"/>
<path class="st0" d="M124.8,44.6c0.1-1.1,0.6-1.9,1.7-2.3c1.1-0.4,2.1,0,2.9,0.9c0.3,0.3,0.4,0.8,0.5,1.2c0,0.3,0,0.6,0,0.8
	c-0.3,1.1-1,1.8-2.1,2.1c-0.3,0-0.6,0-0.9,0c-1-0.1-2.1-1.2-2.1-2.3C124.7,44.9,124.7,44.8,124.8,44.6z"/>
<path class="st0" d="M136.4,42.7c-0.2,1.1-0.9,1.9-2,2.2c-0.3,0.1-0.7,0-1,0c-0.9-0.1-2-1.1-2.1-2.1c-0.2-1.8,1.1-3.1,2.7-3
	c1.1,0.1,2.2,0.8,2.5,2.2C136.4,42.2,136.4,42.4,136.4,42.7z"/>
<path class="st0" d="M159.5,68.4c0.9,0.2,1.7,0.6,2.1,1.5c0.7,1.6-0.2,3.2-1.9,3.6c-0.3,0.1-0.5,0-0.8,0c-1,0-2.1-1.2-2.2-2.1
	c0-0.3,0-0.6,0-0.9c0.1-0.9,1-2,2.3-2.1C159.2,68.3,159.3,68.4,159.5,68.4z"/>
<path class="st0" d="M126.3,51.2c-0.3,1.1-1,1.8-2.1,2.1c-0.2,0.1-0.4,0-0.6,0c-0.1-0.1-0.3,0-0.4-0.1c-1-0.2-2-1.2-2-2.3
	c0-0.1,0-0.3,0-0.4c0.1-1.2,1.1-2.3,2.4-2.4c1.1,0,2.3,0.6,2.6,2c0,0.1,0,0.1,0.1,0.2C126.4,50.7,126.4,50.9,126.3,51.2z"/>
<path class="st0" d="M139.8,21.2c0.2-1.2,1.2-2,2.3-2.1c0.2,0,0.3,0,0.5,0c1.3,0.2,2.1,1,2.3,2.3c0,0.2,0,0.3,0,0.5
	c-0.2,1.3-1,2.1-2.3,2.3c-0.2,0-0.5,0-0.7,0c-1,0-2.1-1.2-2.2-2.1C139.7,21.9,139.7,21.5,139.8,21.2z"/>
<path class="st0" d="M138.1,44c0.2-1.2,1.2-2.1,2.4-2.1c1.2,0,2.3,0.8,2.6,2c0,0.1,0.1,0.3,0.1,0.4c0,0.1,0,0.3,0,0.4
	c-0.2,1.2-0.9,2-2.1,2.3c-0.3,0-0.6,0-0.9,0c-1.1-0.2-2-1-2.1-2.1C138.1,44.6,138.1,44.3,138.1,44z"/>
<path class="st0" d="M155.2,31.7c-1.1-0.1-2.1-1.1-2.2-2.2c0-0.3,0-0.5,0-0.8c0.1-1.1,1-2,2.3-2.2c0.2,0,0.4,0,0.6,0
	c0.8,0.2,1.4,0.5,1.9,1.2c0.2,0.3,0.3,0.7,0.4,1c0.1,0.2,0,0.4,0,0.5c-0.2,1.3-1,2.1-2.3,2.3C155.7,31.7,155.5,31.7,155.2,31.7z"/>
<path class="st1" d="M68.7,91.6c-0.1-0.1-0.1-0.1-0.2-0.2c-0.2-0.2-0.4-0.4-0.7-0.6c-0.2-0.2-0.2-0.3,0-0.5c1.4-1.4,2.7-2.7,4-4.1
	c0.4-0.4,0.8-0.8,1.3-1.3c0.2-0.2,0.3-0.2,0.4,0c0.2,0.2,0.4,0.5,0.7,0.7c0.2,0.2,0.1,0.3,0,0.4c-1.8,1.8-3.6,3.5-5.3,5.3
	C68.9,91.5,68.8,91.5,68.7,91.6z"/>
<path class="st1" d="M168.2,111.2c0-0.1,0-0.2,0-0.3c0-9.2,0-18.4,0-27.6c0-0.1,0-0.2,0-0.3c0.5-0.2,1,0,1.5-0.1
	c0.1,0,0.1,0.1,0.1,0.2c0,0.1,0,0.2,0,0.3c0,9.1,0,18.3,0,27.4c0,0.5,0.1,0.5-0.5,0.5C169,111.2,168.6,111.3,168.2,111.2z"/>
<path class="st1" d="M153.2,84.6c0.1-0.2,0.3-0.1,0.4-0.1c2.8,0,5.6,0,8.4,0c0.3,0,0.5-0.1,0.5-0.4c0-1,0-1-1-1c-3.1,0-6.2,0-9.3,0
	c-0.3,0-0.4,0.1-0.4,0.4c0,9,0,18.1,0,27.1c0,0.4,0.1,0.5,0.5,0.4c0.9,0,0.9,0,0.9-0.9c0-3.9,0-7.9,0-11.8c0-0.1,0-0.3,0-0.4
	c0.1,0.1,0.1,0.2,0.1,0.3c0,4.2,0,8.3,0,12.5c0,0.3-0.1,0.5-0.4,0.4c-0.4,0-0.8,0-1.1,0c-0.1-0.1,0-0.3,0-0.4c0-9.1,0-18.2,0-27.4
	c0-0.1-0.1-0.3,0.1-0.4c3.6,0,7.3,0,10.9,0c0.1,0.5,0,1,0,1.5c0,0.1,0,0.2-0.2,0.2c-0.1,0-0.1,0-0.2,0c-2.9,0-5.8,0-8.8,0
	C153.4,84.6,153.3,84.6,153.2,84.6z"/>
<path class="st1" d="M99.2,88.2c0,0.5,0,1.1,0,1.6c0,0.2,0,0.3-0.3,0.3c-0.4,0-0.7,0-1.1,0c-0.2,0-0.2-0.1-0.2-0.2
	c0-1.1,0-2.2,0-3.3c0-0.2,0.1-0.3,0.3-0.3c0.4,0,0.7,0,1.1,0c0.2,0,0.3,0.1,0.3,0.3C99.2,87.1,99.2,87.6,99.2,88.2z"/>
<path class="st1" d="M97.6,102.4c0-2.8,0-5.5,0-8.3c0-0.4,0.1-0.5,0.5-0.5c0.3,0,0.6,0,0.9,0c0.2,0,0.3,0.1,0.3,0.3
	c0,0.6,0,1.2,0,1.8c0,5,0,10,0,15.1c0,0.3-0.1,0.5-0.4,0.5c-0.4,0-0.9,0.1-1.1-0.1c-0.3-0.2-0.1-0.8-0.1-1.1
	C97.6,107.5,97.6,104.9,97.6,102.4z"/>
<path class="st1" d="M71.9,102.4c0,2.8,0,5.6,0,8.4c0,0.3-0.1,0.4-0.4,0.4c-0.3,0-0.6,0-1,0c-0.2,0-0.3-0.1-0.3-0.3
	c0-0.1,0-0.1,0-0.2c0-5.6,0-11.2,0-16.7c0-0.4,0.1-0.5,0.4-0.4c0.4,0,0.9-0.2,1.1,0.1c0.2,0.2,0.1,0.7,0.1,1.1
	C71.9,97.4,71.9,99.9,71.9,102.4z"/>
<path class="st1" d="M62.4,94.8c-0.3-0.1-0.2-0.3-0.2-0.5c0-0.5,0-0.5-0.5-0.5c-0.8,0-0.8,0-0.8,0.8c0,5.3,0,10.6,0,16
	c0,0.5,0,0.5,0.5,0.5c0.8,0,0.8,0,0.8-0.8c0-4.1,0-8.3,0-12.4c0-0.3,0-0.5,0.2-0.7c0-0.1,0.1-0.2,0.2,0c-0.1,0.2-0.2,0.4-0.2,0.6
	c0,4.4,0,8.8,0,13.2c0,0.4-0.1,0.5-0.4,0.4c-0.4,0-0.9,0.2-1.2-0.1c-0.2-0.2-0.1-0.7-0.1-1.1c0-5.3,0-10.6,0-15.9
	c0-0.4,0.1-0.5,0.5-0.4c0.3,0,0.6,0,1,0c0.2,0,0.2,0.1,0.2,0.2C62.4,94.2,62.4,94.5,62.4,94.8z"/>
<path class="st1" d="M200.4,93.8c-0.2,0.3,0,0.6-0.1,0.9c0-0.2,0-0.4,0-0.6c0-0.2-0.1-0.3-0.3-0.3c-1.1-0.1-1.1-0.1-1.1,1
	c0,5.3,0,10.5,0,15.8c0,0.4,0.1,0.5,0.5,0.5c0.8,0,0.8,0,0.8-0.8c0-4.2,0-8.3,0-12.5c0-0.2-0.1-0.4,0.1-0.5c0,0,0,0,0,0
	c0,0,0,0,0,0.1c0,0,0,0.1,0,0.1c0,4.5,0,9,0,13.5c0,0.1,0,0.1,0,0.2l0,0c-0.5,0.1-1.1,0.1-1.6,0l0,0c-0.1-0.1,0-0.3,0-0.4
	c0-5.6,0-11.2,0-16.8c0-0.1-0.1-0.3,0.1-0.4c0.5,0,1.1,0,1.6,0C200.4,93.7,200.4,93.8,200.4,93.8z"/>
<path class="st1" d="M119.1,110.1c0.2,0.2,0.1,0.4,0.1,0.6c0,0.2,0.1,0.3,0.3,0.3c0.3,0,0.6,0,0.9,0c0.2,0,0.3-0.1,0.3-0.3
	c0-0.1,0-0.2,0-0.2c0-5.4,0-10.8,0-16.2c0-0.5,0-0.5-0.5-0.5c-0.3,0-0.6-0.1-0.8,0.1c-0.2,0.2,0,0.5-0.1,0.7c0,0,0,0.1-0.1,0.1
	c-0.1-0.4-0.1-0.7,0-1.1c0.4,0,0.8,0,1.2,0c0.3,0,0.5,0.1,0.5,0.4c0,2.1,0,4.2,0,6.3c0,3.6,0,7.2,0,10.8c-0.5,0.1-1.1,0.1-1.6,0l0,0
	C119,110.9,119.1,110.5,119.1,110.1z"/>
<path class="st1" d="M42.7,110.1c0.2,0.2,0.1,0.4,0.1,0.7c0,0.2,0.1,0.3,0.3,0.3c1.1,0.1,1.1,0.1,1.1-1c0-5.2,0-10.4,0-15.7
	c0-0.5,0-0.5-0.5-0.5c0,0,0,0,0,0c-0.8,0-0.8,0-0.8,0.8c0,0.1,0,0.2-0.1,0.2c0-0.3,0-0.6,0-0.9c0-0.2,0.1-0.3,0.3-0.3
	c0.4,0,0.8,0,1.1,0c0.2,0,0.3,0.1,0.2,0.2c0,0.1,0,0.1,0,0.2c0,5.6,0,11.1,0,16.7c0,0.3-0.1,0.5-0.4,0.4c-0.3,0-0.6,0-0.9,0
	c-0.3,0-0.3-0.1-0.3-0.3C42.7,110.7,42.7,110.4,42.7,110.1z"/>
<path class="st1" d="M168.2,111.2c0.5,0,1,0,1.4,0c0.2,0,0.2-0.1,0.2-0.2c0-0.1,0-0.2,0-0.2c0-9.1,0-18.2,0-27.4
	c0-0.4-0.1-0.5-0.5-0.5c-0.4,0-0.8,0-1.2,0c0.2-0.2,0.5-0.1,0.8-0.1c0.9,0,0.9,0,0.9,0.9c0,9,0,18,0,27c0,0.5,0,0.6-0.5,0.5
	C169,111.3,168.6,111.4,168.2,111.2z"/>
<path class="st1" d="M151.6,82.9c0,0.1,0,0.2,0,0.3c0,9.2,0,18.4,0,27.6c0,0.1,0,0.2,0,0.3c0.5,0.2,1.1,0.1,1.6,0.1
	c-0.3,0.2-0.7,0.1-1,0.1c-0.7,0-0.7,0-0.7-0.7c0-9.1,0-18.1,0-27.2C151.5,83.2,151.4,83.1,151.6,82.9z"/>
<path class="st1" d="M208.8,103.3c0.2,0,0.3,0,0.5,0c5.4,0,10.7,0,16.1,0c0.1,0,0.3,0.1,0.4-0.1c-0.1-0.3-0.1-0.6,0-0.9
	c0-0.1,0-0.1,0-0.2c0.1,0.3,0,0.7,0.1,1.1c0,0.1-0.1,0.2-0.2,0.2c-0.1,0-0.2,0-0.3,0c-5.4,0-10.7,0-16.1,0
	C209.1,103.4,208.9,103.4,208.8,103.3z"/>
<path class="st1" d="M198.8,93.7c0,0.1,0,0.2,0,0.3c0,5.7,0,11.4,0,17.1c0,0.1,0,0.1,0,0.2c-0.1-0.1-0.1-0.3-0.1-0.4
	c0-5.6,0-11.2,0-16.8C198.7,93.9,198.6,93.8,198.8,93.7z"/>
<path class="st1" d="M51.7,111.1c0.4,0,0.8,0,1.2,0c0.2,0,0.3-0.1,0.3-0.3c0-0.1,0-0.2,0-0.3c0-4.9,0-9.8,0-14.7c0-0.1,0-0.3,0-0.4
	c0,0,0,0,0.1,0c0,0.1,0,0.2,0,0.3c0,5,0,10,0,15c0,0.3-0.1,0.5-0.4,0.4C52.5,111.1,52.1,111.1,51.7,111.1
	C51.7,111.1,51.7,111.1,51.7,111.1z"/>
<path class="st1" d="M200.4,97.4C200.4,97.4,200.4,97.3,200.4,97.4c0-0.1,0.1-0.1,0.1-0.1c0,3.6,0,7.2,0,10.8c0,0.9,0,1.8,0,2.8
	c0,0.1,0.1,0.3-0.1,0.4c0-0.1,0-0.1,0-0.2c0-0.1,0-0.2,0-0.3c0-4.3,0-8.7,0-13C200.4,97.6,200.3,97.5,200.4,97.4z"/>
<path class="st1" d="M153.2,84.6c3,0,6,0,9,0c0.3,0,0.4-0.1,0.4-0.4c0-0.4,0-0.9,0-1.3c0.2,0.5,0.1,1.1,0.1,1.6
	c0,0.2-0.2,0.1-0.4,0.1c-1.6,0-3.2,0-4.8,0C156,84.6,154.6,84.6,153.2,84.6C153.2,84.6,153.2,84.6,153.2,84.6z"/>
<path class="st1" d="M53.2,86.4c0.1,0.1,0.1,0.2,0.1,0.3c0,2.2,0,4.5,0,6.7c0,0,0,0-0.1,0.1c0-0.1,0-0.3,0-0.4c0-2.1,0-4.2,0-6.2
	C53.2,86.8,53.2,86.6,53.2,86.4C53.1,86.4,53.2,86.4,53.2,86.4z"/>
<path class="st3" d="M174.5,120.3c-1.5,0-3,0-4.4,0c-0.5,0-1.1,0-1.6,0c0.1-0.1,0.2-0.1,0.4-0.1c1.8,0,3.6,0,5.3,0
	C174.3,120.2,174.4,120.2,174.5,120.3z"/>
<path class="st1" d="M56.7,93.8c-1.1,0-2.2,0-3.3,0c0,0,0-0.1,0-0.1C54.5,93.7,55.6,93.7,56.7,93.8C56.7,93.8,56.7,93.8,56.7,93.8z"
	/>
<path class="st1" d="M48.8,93.7c1,0,1.9,0,2.9,0c0,0,0,0.1,0,0.1C50.7,93.8,49.7,93.8,48.8,93.7C48.8,93.8,48.8,93.8,48.8,93.7z"/>
<path class="st1" d="M204.8,94.7c0-0.4,0-0.9,0-1.3c0-0.3-0.1-0.4-0.4-0.4c-0.1,0-0.3,0-0.4,0c0.2-0.1,0.5,0,0.7-0.1
	c0.1,0,0.1,0,0.1,0.1C204.9,93.7,205,94.2,204.8,94.7z"/>
<path class="st1" d="M234.4,94.8c0.1-0.5,0-1,0.1-1.5c0-0.2-0.1-0.1-0.2-0.1c-0.2,0-0.3,0-0.5,0c0.2-0.1,0.4,0,0.6-0.1
	c0.1,0,0.2,0.1,0.2,0.2c0,0.5,0,1,0,1.4C234.5,94.7,234.4,94.8,234.4,94.8z"/>
<path class="st1" d="M162.5,97.9c0.1-0.6,0.1-1.1,0-1.7c0.2,0.4,0,0.9,0.1,1.3C162.6,97.7,162.7,97.8,162.5,97.9z"/>
<path class="st1" d="M175,101.7c0,0.6,0,1.1,0,1.7C174.9,102.8,174.9,102.2,175,101.7z"/>
<path class="st1" d="M185.2,93.1c-0.5,0-1.1,0-1.6,0C184.1,93,184.7,93,185.2,93.1z"/>
<path class="st1" d="M119.1,111.2c0.5,0,1.1,0,1.6,0c-0.1,0.2-0.3,0.1-0.5,0.1C119.9,111.3,119.5,111.4,119.1,111.2z"/>
<path class="st1" d="M198.8,111.2c0.5,0,1.1,0,1.6,0C199.8,111.3,199.3,111.4,198.8,111.2z"/>
<path class="st1" d="M217.2,93.1c-0.5,0-1,0-1.6,0C216.1,93,216.7,93,217.2,93.1z"/>
<path class="st3" d="M139.2,76.8c-0.1-0.5,0-1-0.1-1.6C139.3,75.8,139.2,76.3,139.2,76.8z"/>
<path class="st3" d="M139.2,80.6c0-0.5-0.1-1,0.1-1.6C139.2,79.6,139.3,80.1,139.2,80.6z"/>
<path class="st1" d="M114.4,93.1c-0.5,0-1,0-1.5,0C113.5,93,113.9,93,114.4,93.1z"/>
<path class="st3" d="M227.9,127.9c0.4,0,0.9,0,1.3,0C228.8,128.1,228.3,128,227.9,127.9z"/>
<path class="st3" d="M112.5,60.7c0,0.4,0,0.9,0,1.3C112.4,61.6,112.4,61.2,112.5,60.7z"/>
<path class="st3" d="M154.2,42.9c-0.4,0-0.8,0-1.2,0C153.4,42.8,153.8,42.8,154.2,42.9z"/>
<path class="st3" d="M115.8,46.2c0.4,0,0.8,0,1.2,0C116.7,46.3,116.3,46.3,115.8,46.2z"/>
<path class="st1" d="M235.1,107.2c0-0.4,0-0.8,0-1.2C235.2,106.3,235.2,106.8,235.1,107.2z"/>
<path class="st3" d="M152.6,38.8c0-0.4,0-0.8,0-1.2C152.7,38,152.7,38.4,152.6,38.8z"/>
<path class="st3" d="M221.4,120.1c-0.3-0.2-0.7,0-1-0.1c0.3-0.1,0.7,0,1,0C221.4,120,221.4,120.1,221.4,120.1z"/>
<path class="st1" d="M119.1,93.7c0,0.4,0,0.7,0,1.1c0,0,0,0.1-0.1,0C119.1,94.4,118.9,94,119.1,93.7z"/>
<path class="st1" d="M200.4,93.8c0-0.1,0-0.1,0-0.2c0.2,0.4,0,0.7,0.1,1.1c-0.2-0.2,0-0.3-0.1-0.5C200.4,94.1,200.4,94,200.4,93.8z"
	/>
<path class="st1" d="M119.1,110.1c0,0.4,0,0.7,0,1.1c-0.2-0.2,0-0.4-0.1-0.6c0-0.1,0.1-0.3-0.1-0.4C119,110.1,119,110.1,119.1,110.1
	z"/>
<path class="st3" d="M136.8,32.4c0,0.4,0,0.8,0,1.2C136.7,33.1,136.7,32.7,136.8,32.4z"/>
<path class="st3" d="M157.7,120.3c-0.4,0-0.7,0-1.1,0C157,120.2,157.4,120.2,157.7,120.3z"/>
<path class="st3" d="M148.9,69c0.4,0,0.7,0,1.1,0C149.7,69.1,149.3,69.1,148.9,69z"/>
<path class="st3" d="M185.9,120.3c-0.4,0-0.7,0-1.1,0C185.1,120.2,185.5,120.2,185.9,120.3z"/>
<path class="st1" d="M231.2,98.5c-0.1-0.4-0.1-0.7,0-1.1C231.2,97.7,231.2,98.1,231.2,98.5z"/>
<path class="st3" d="M141.2,29.2c-0.4,0-0.7,0-1.1,0C140.5,29.1,140.8,29,141.2,29.2z"/>
<path class="st3" d="M117.8,52.4c0-0.4,0-0.7,0-1.1C117.9,51.7,117.9,52,117.8,52.4z"/>
<path class="st3" d="M136.7,74.6c0.1,0.4,0,0.7,0.1,1.1C136.6,75.3,136.7,75,136.7,74.6z"/>
<path class="st1" d="M233.3,106c0.1,0.4,0.1,0.8,0,1.1C233.3,106.7,233.3,106.4,233.3,106z"/>
<path class="st3" d="M136.7,81.5c0,0.3,0,0.7-0.1,1C136.6,82.2,136.5,81.9,136.7,81.5z"/>
<path class="st3" d="M139.1,82.4c0-0.3,0-0.7,0.1-1C139.1,81.7,139.2,82.1,139.1,82.4z"/>
<path class="st3" d="M136.7,80c0,0.3,0.1,0.7-0.1,1C136.7,80.7,136.6,80.3,136.7,80z"/>
<path class="st3" d="M133.3,44.9c0.3,0,0.7,0,1,0C134,45,133.7,45,133.3,44.9z"/>
<path class="st3" d="M148.3,42c0.3,0,0.7,0,1,0C149,42.1,148.7,42.1,148.3,42z"/>
<path class="st3" d="M112.7,26.4c0,0.3,0,0.7,0,1C112.6,27.1,112.6,26.8,112.7,26.4z"/>
<path class="st3" d="M139.1,74.5c-0.1-0.3-0.1-0.7-0.1-1C139.2,73.8,139.1,74.1,139.1,74.5z"/>
<path class="st3" d="M138.1,44c0,0.3,0,0.6,0,0.9C138,44.6,138,44.3,138.1,44z"/>
<path class="st3" d="M156.7,70.5c0,0.3,0,0.6,0,0.9C156.6,71.1,156.6,70.8,156.7,70.5z"/>
<path class="st3" d="M140.2,47c0.3,0,0.6,0,0.9,0C140.9,47.2,140.6,47.1,140.2,47z"/>
<path class="st3" d="M167.8,57.4c0-0.3,0-0.6,0-0.9C167.9,56.8,167.9,57.1,167.8,57.4z"/>
<path class="st1" d="M229.8,111.6c0.3,0,0.6,0,0.9,0C230.4,111.7,230.1,111.7,229.8,111.6z"/>
<path class="st1" d="M230.7,109.9c-0.3,0.1-0.7,0.1-1,0C230.1,109.9,230.4,109.9,230.7,109.9z"/>
<path class="st3" d="M139.8,21.2c0,0.3,0,0.6,0,0.9C139.7,21.9,139.7,21.5,139.8,21.2z"/>
<path class="st3" d="M157.7,56.9c0-0.3,0-0.6,0-0.9C157.8,56.3,157.8,56.6,157.7,56.9z"/>
<path class="st3" d="M126.9,47.4c0.3,0,0.6,0,0.9,0C127.5,47.5,127.2,47.5,126.9,47.4z"/>
<path class="st3" d="M136.6,73.1c0.1,0.3,0.1,0.6,0.1,0.9C136.5,73.7,136.6,73.4,136.6,73.1z"/>
<path class="st3" d="M126.3,51.2c0-0.3,0-0.6,0-0.8C126.4,50.7,126.4,50.9,126.3,51.2z"/>
<path class="st3" d="M122.3,72.5c0.3,0,0.6,0,0.8,0C122.9,72.6,122.6,72.6,122.3,72.5z"/>
<path class="st1" d="M203.9,94.8c0.3-0.1,0.6,0,0.9-0.1C204.5,94.9,204.2,94.8,203.9,94.8z"/>
<path class="st3" d="M109.8,68.6c0-0.3,0-0.6,0-0.9C109.9,68.1,109.9,68.3,109.8,68.6z"/>
<path class="st3" d="M157.4,47.1c0-0.3,0-0.6,0-0.8C157.5,46.5,157.5,46.8,157.4,47.1z"/>
<path class="st3" d="M128.1,59.3c0-0.3,0-0.6,0-0.8C128.2,58.7,128.2,59,128.1,59.3z"/>
<path class="st3" d="M163.5,44.4c0.3,0,0.6,0,0.8,0C164,44.5,163.8,44.5,163.5,44.4z"/>
<path class="st3" d="M129.9,45.2c0-0.3,0-0.6,0-0.8C130,44.7,130,45,129.9,45.2z"/>
<path class="st3" d="M209.1,120.2c-0.3,0-0.6,0-0.8,0C208.5,120.1,208.8,120.1,209.1,120.2z"/>
<path class="st3" d="M158.9,73.5c0.3,0,0.5,0,0.8,0C159.4,73.7,159.2,73.6,158.9,73.5z"/>
<path class="st3" d="M123.5,31.4c-0.3,0-0.5,0-0.8,0C122.9,31.3,123.2,31.3,123.5,31.4z"/>
<path class="st1" d="M229.5,97.5c0,0.3,0,0.5,0,0.8C229.4,98.1,229.4,97.8,229.5,97.5z"/>
<path class="st1" d="M113.9,111.8c0.3-0.1,0.5-0.1,0.8-0.1C114.5,111.9,114.2,111.8,113.9,111.8z"/>
<path class="st3" d="M114.4,48c-0.3,0-0.5,0-0.8,0C113.8,47.9,114.1,47.9,114.4,48z"/>
<path class="st3" d="M153.1,28.7c0,0.3,0,0.5,0,0.8C152.9,29.2,152.9,29,153.1,28.7z"/>
<path class="st3" d="M132.2,69.4c-0.3,0-0.5,0-0.8,0C131.7,69.3,132,69.3,132.2,69.4z"/>
<path class="st3" d="M138.1,56.9c0-0.3-0.1-0.5,0.1-0.8C138.1,56.4,138.2,56.6,138.1,56.9z"/>
<path class="st3" d="M147.1,83.1c0.3,0,0.5,0,0.8,0C147.6,83.2,147.3,83.2,147.1,83.1z"/>
<path class="st3" d="M153.5,60.3c0.3,0,0.5,0,0.8,0C154,60.4,153.7,60.4,153.5,60.3z"/>
<path class="st3" d="M128.1,23.6c0.3,0,0.5,0,0.8,0C128.6,23.7,128.4,23.7,128.1,23.6z"/>
<path class="st3" d="M112.6,42.1c0,0.2,0,0.5,0,0.7C112.5,42.5,112.5,42.3,112.6,42.1z"/>
<path class="st3" d="M120.3,42.8c0-0.2,0-0.5,0-0.7C120.4,42.3,120.4,42.5,120.3,42.8z"/>
<path class="st3" d="M136.4,42.7c0-0.2,0-0.5,0-0.7C136.5,42.2,136.5,42.4,136.4,42.7z"/>
<path class="st3" d="M144.3,49.3c-0.2,0-0.5,0-0.7,0C143.8,49.2,144,49.2,144.3,49.3z"/>
<path class="st3" d="M100.2,53.3c0,0.2,0,0.5,0,0.7C100.1,53.8,100.1,53.6,100.2,53.3z"/>
<path class="st3" d="M165.6,54.4c-0.2,0-0.5,0-0.7,0C165.1,54.3,165.3,54.3,165.6,54.4z"/>
<path class="st3" d="M164.9,59.6c0.2,0,0.5,0,0.7,0C165.3,59.7,165.1,59.7,164.9,59.6z"/>
<path class="st3" d="M117.6,81.5c0.2,0,0.5,0,0.7,0C118.1,81.7,117.9,81.7,117.6,81.5z"/>
<path class="st3" d="M155.2,31.7c0.2,0,0.5,0,0.7,0C155.7,31.8,155.5,31.8,155.2,31.7z"/>
<path class="st3" d="M145.7,64.8c0,0.2,0,0.5,0,0.7C145.6,65.3,145.6,65.1,145.7,64.8z"/>
<path class="st3" d="M118.3,76.4c-0.2,0-0.5,0-0.7,0C117.9,76.3,118.1,76.3,118.3,76.4z"/>
<path class="st3" d="M142.4,73.1c0.2,0,0.5,0,0.7,0C142.9,73.2,142.7,73.2,142.4,73.1z"/>
<path class="st3" d="M131.1,21.4c0-0.2,0-0.5,0-0.7C131.2,20.9,131.2,21.2,131.1,21.4z"/>
<path class="st1" d="M184.6,111.8c0.2-0.1,0.5-0.1,0.7-0.1C185.1,111.9,184.8,111.8,184.6,111.8z"/>
<path class="st3" d="M131.5,28.4c-0.2,0-0.5,0-0.7-0.1C131,28.3,131.2,28.2,131.5,28.4z"/>
<path class="st1" d="M215.2,111.8c0.2,0,0.5,0,0.7,0.1C215.6,111.8,215.4,111.9,215.2,111.8z"/>
<path class="st1" d="M216.7,111.8c0.2-0.1,0.5-0.1,0.7-0.1C217.2,111.9,216.9,111.8,216.7,111.8z"/>
<path class="st3" d="M145.6,70.6c0-0.2,0-0.5,0-0.7C145.7,70.1,145.7,70.3,145.6,70.6z"/>
<path class="st3" d="M142,24.3c0.2,0,0.5,0,0.7,0C142.4,24.4,142.2,24.4,142,24.3z"/>
<path class="st3" d="M125.9,20.7c0,0.2,0,0.4,0,0.6C125.8,21.1,125.8,20.9,125.9,20.7z"/>
<path class="st3" d="M147.8,78c-0.2,0-0.4,0-0.6,0C147.4,77.8,147.6,77.8,147.8,78z"/>
<path class="st3" d="M129.6,56.7c0.1,0.2,0,0.4,0.1,0.6C129.5,57.1,129.6,56.9,129.6,56.7z"/>
<path class="st3" d="M143.7,54.4c0.2,0,0.4,0,0.6,0C144.1,54.5,143.9,54.5,143.7,54.4z"/>
<path class="st3" d="M155.9,26.5c-0.2,0-0.4,0-0.6,0C155.5,26.4,155.7,26.4,155.9,26.5z"/>
<path class="st3" d="M136.4,71.1c0.1,0.2,0.1,0.4,0.1,0.6C136.4,71.5,136.5,71.3,136.4,71.1z"/>
<path class="st3" d="M139,72c-0.1-0.2-0.1-0.4-0.1-0.6C139.1,71.6,139,71.8,139,72z"/>
<path class="st3" d="M119.2,34.9c0,0.2,0,0.4,0,0.6C119.1,35.3,119.1,35.1,119.2,34.9z"/>
<path class="st3" d="M126.9,35.5c0-0.2,0-0.4,0-0.6C127,35.1,127,35.3,126.9,35.5z"/>
<path class="st1" d="M183.1,111.8c0.2,0,0.4,0,0.6,0.1C183.6,111.8,183.3,111.9,183.1,111.8z"/>
<path class="st3" d="M139.1,73c-0.1-0.2-0.1-0.4-0.1-0.6C139.1,72.6,139,72.8,139.1,73z"/>
<path class="st3" d="M122.8,39c0.2,0,0.4,0,0.6,0C123.2,39.1,123,39.1,122.8,39z"/>
<path class="st1" d="M112.5,111.8c0.2,0,0.4,0,0.6,0.1C112.9,111.8,112.7,111.9,112.5,111.8z"/>
<path class="st3" d="M153.3,65.4c0-0.2,0-0.4,0-0.6C153.4,65,153.4,65.2,153.3,65.4z"/>
<path class="st3" d="M136.5,83.9c0,0.2,0,0.4-0.1,0.6C136.5,84.3,136.4,84.1,136.5,83.9z"/>
<path class="st3" d="M138.9,84.5c0-0.2,0-0.4,0.1-0.6C139,84.1,139.1,84.3,138.9,84.5z"/>
<path class="st3" d="M149.8,46.4c0,0.2,0,0.4,0,0.5C149.7,46.8,149.7,46.6,149.8,46.4z"/>
<path class="st3" d="M192.9,129.9c0-0.2,0-0.4,0-0.5C193,129.5,193,129.7,192.9,129.9z"/>
<path class="st3" d="M104.6,67.9c0,0.2,0,0.4,0,0.5C104.5,68.3,104.5,68.1,104.6,67.9z"/>
<path class="st3" d="M159.5,68.4c-0.2,0-0.4,0-0.5,0C159.1,68.3,159.3,68.3,159.5,68.4z"/>
<path class="st3" d="M123,58.6c0,0.2,0,0.4,0,0.5C122.9,59,122.9,58.8,123,58.6z"/>
<path class="st3" d="M137.1,57.4c0.2-0.1,0.4,0,0.6-0.1C137.5,57.5,137.3,57.4,137.1,57.4z"/>
<path class="st3" d="M138.8,70.3c-0.1-0.2-0.1-0.4-0.1-0.6C138.9,69.9,138.8,70.1,138.8,70.3z"/>
<path class="st3" d="M139,83.4c0-0.2,0-0.4,0.1-0.6C139.1,83,139.1,83.2,139,83.4z"/>
<path class="st3" d="M164.2,39.3c-0.2,0-0.4,0-0.5,0C163.8,39.2,164,39.1,164.2,39.3z"/>
<path class="st3" d="M113.7,55.7c0.2,0,0.4,0,0.5,0C114.1,55.8,113.9,55.8,113.7,55.7z"/>
<path class="st3" d="M105.4,53.9c0-0.2,0-0.4,0-0.5C105.5,53.6,105.5,53.8,105.4,53.9z"/>
<path class="st3" d="M154.1,52.6c-0.2,0-0.4,0-0.5,0C153.8,52.5,154,52.5,154.1,52.6z"/>
<path class="st3" d="M136.5,72.1c0.1,0.2,0.1,0.4,0.1,0.6C136.4,72.5,136.5,72.3,136.5,72.1z"/>
<path class="st3" d="M158.2,29.3c0-0.2,0-0.4,0-0.5C158.3,29,158.3,29.1,158.2,29.3z"/>
<path class="st3" d="M129.2,71.6c0,0.2,0,0.3-0.1,0.5C129.1,71.9,129.1,71.7,129.2,71.6z"/>
<path class="st3" d="M199.1,118.2c-0.2,0-0.3,0-0.5,0C198.8,118.1,199,118.1,199.1,118.2z"/>
<path class="st3" d="M129.1,72.1c0.1,0.2,0.1,0.3,0.1,0.5C129.1,72.4,129.1,72.3,129.1,72.1z"/>
<path class="st3" d="M130.7,28.3c-0.2,0.1-0.3,0.1-0.5,0.1C130.4,28.2,130.5,28.3,130.7,28.3z"/>
<path class="st3" d="M132.5,86c0.2-0.1,0.3-0.1,0.5-0.1C132.9,86.1,132.7,86,132.5,86z"/>
<path class="st3" d="M163.5,127.2c-0.2,0-0.3,0-0.5-0.1C163.2,127.2,163.3,127.1,163.5,127.2z"/>
<path class="st3" d="M138.8,86c0-0.2,0-0.3,0.1-0.5C138.8,85.7,138.9,85.9,138.8,86z"/>
<path class="st3" d="M136.6,83c0,0.2,0,0.3-0.1,0.5C136.5,83.3,136.5,83.2,136.6,83z"/>
<path class="st3" d="M136.3,69.6c0.1,0.1,0.1,0.3,0.1,0.5C136.2,70,136.3,69.8,136.3,69.6z"/>
<path class="st3" d="M192.2,127.2c-0.2,0.1-0.3,0.1-0.5,0C191.9,127.2,192.1,127.2,192.2,127.2z"/>
<path class="st3" d="M163.4,128.2c0.2,0,0.3,0,0.5,0C163.7,128.4,163.6,128.3,163.4,128.2z"/>
<path class="st3" d="M136.3,85.5c0,0.2,0,0.3-0.1,0.5C136.3,85.8,136.2,85.6,136.3,85.5z"/>
<path class="st3" d="M133.7,59c0.2,0,0.3,0,0.5,0C134,59.1,133.9,59.1,133.7,59z"/>
<path class="st3" d="M142.6,19.1c-0.2,0-0.3,0-0.5,0C142.3,19,142.4,19,142.6,19.1z"/>
<path class="st3" d="M144.9,21.9c0-0.2,0-0.3,0-0.5C145,21.6,145,21.8,144.9,21.9z"/>
<path class="st3" d="M138.4,67.1c-0.1-0.1-0.1-0.3-0.1-0.4C138.5,66.8,138.4,67,138.4,67.1z"/>
<path class="st3" d="M116.1,65.2c0.1,0,0.3,0,0.4,0C116.3,65.2,116.2,65.2,116.1,65.2z"/>
<path class="st1" d="M217.9,93.2c-0.1,0-0.3,0-0.4-0.1C217.6,93.1,217.7,93.1,217.9,93.2z"/>
<path class="st3" d="M120,61.9c0-0.1,0-0.3,0.1-0.4C120.1,61.7,120.2,61.8,120,61.9z"/>
<path class="st3" d="M120.1,61.1c-0.1-0.1-0.1-0.3-0.1-0.4C120.2,60.8,120.1,61,120.1,61.1z"/>
<path class="st3" d="M118.9,68c0,0.1,0,0.3-0.1,0.4C118.9,68.3,118.8,68.1,118.9,68z"/>
<path class="st3" d="M136.1,68.4c0.1,0.1,0.1,0.3,0.1,0.4C136.1,68.7,136.1,68.5,136.1,68.4z"/>
<path class="st3" d="M116.5,57.5c-0.1,0-0.3,0-0.4,0C116.2,57.4,116.3,57.4,116.5,57.5z"/>
<path class="st3" d="M138.7,68.8c-0.1-0.1-0.1-0.3-0.1-0.4C138.7,68.5,138.7,68.7,138.7,68.8z"/>
<path class="st3" d="M118.9,68.9c0.1,0.1,0.1,0.3,0.1,0.4C118.8,69.1,118.9,69,118.9,68.9z"/>
<path class="st3" d="M136.2,69c0.1,0.1,0.1,0.3,0.1,0.4C136.2,69.3,136.2,69.1,136.2,69z"/>
<path class="st3" d="M102.9,56.3c0.1-0.1,0.3-0.1,0.4-0.1C103.2,56.3,103.1,56.3,102.9,56.3z"/>
<path class="st3" d="M139.9,70c0,0.1,0,0.3,0,0.4C139.8,70.3,139.8,70.2,139.9,70z"/>
<path class="st3" d="M136.4,70.4c0.1,0.1,0.1,0.3,0.1,0.4C136.3,70.7,136.4,70.5,136.4,70.4z"/>
<path class="st3" d="M128,53.4c0,0.1,0,0.3,0,0.4C127.9,53.7,127.9,53.5,128,53.4z"/>
<path class="st3" d="M138.9,71c-0.1-0.1-0.1-0.3-0.1-0.4C139,70.7,138.9,70.9,138.9,71z"/>
<path class="st3" d="M123.2,53.3c0.1,0,0.3,0,0.4,0.1C123.5,53.4,123.3,53.5,123.2,53.3z"/>
<path class="st1" d="M217.4,110.1c-0.1,0.1-0.3,0.1-0.4,0.1C217.1,110,217.2,110.1,217.4,110.1z"/>
<path class="st3" d="M121.2,50.6c0,0.1,0,0.3,0,0.4C121.1,50.9,121.1,50.7,121.2,50.6z"/>
<path class="st3" d="M153.9,50.5c0.1-0.1,0.3-0.1,0.4-0.1C154.2,50.6,154,50.5,153.9,50.5z"/>
<path class="st3" d="M129.3,50.1c0.1,0.1,0.1,0.3,0,0.4C129.3,50.4,129.3,50.3,129.3,50.1z"/>
<path class="st1" d="M215.8,110.1c-0.1,0-0.3,0-0.4-0.1C215.5,110.1,215.6,110,215.8,110.1z"/>
<path class="st3" d="M132.5,48.3c-0.1,0.1-0.3,0.1-0.4,0C132.2,48.3,132.3,48.3,132.5,48.3z"/>
<path class="st3" d="M136.4,84.8c0,0.1,0,0.3-0.1,0.4C136.4,85.1,136.3,84.9,136.4,84.8z"/>
<path class="st3" d="M138.9,85.2c0-0.1,0-0.3,0.1-0.4C138.9,84.9,139,85.1,138.9,85.2z"/>
<path class="st3" d="M124.8,44.6c0,0.1,0,0.3,0,0.4C124.7,44.9,124.7,44.8,124.8,44.6z"/>
<path class="st3" d="M143.3,44.7c0-0.1,0-0.3,0-0.4C143.4,44.4,143.4,44.6,143.3,44.7z"/>
<path class="st1" d="M207,103.3c0.1,0.1,0.1,0.3,0.1,0.4C206.9,103.6,207,103.5,207,103.3z"/>
<path class="st1" d="M193.6,103.5c0-0.1,0-0.3,0.1-0.4C193.7,103.3,193.8,103.4,193.6,103.5z"/>
<path class="st3" d="M166.4,42.4c0-0.1,0-0.3,0.1-0.4C166.5,42.1,166.6,42.3,166.4,42.4z"/>
<path class="st1" d="M207,102.4c0,0.1,0,0.3,0,0.4C206.9,102.7,206.9,102.6,207,102.4z"/>
<path class="st3" d="M132.1,86c0.1,0,0.3,0,0.4,0.1C132.3,86,132.2,86.1,132.1,86z"/>
<path class="st3" d="M145,38.5c0.1,0.1,0.1,0.3,0.1,0.4C144.9,38.8,145,38.6,145,38.5z"/>
<path class="st1" d="M207.1,101.4c0,0.1,0,0.3-0.1,0.4C207,101.6,206.9,101.5,207.1,101.4z"/>
<path class="st3" d="M108.3,38.6c-0.1-0.1-0.1-0.3-0.1-0.4C108.4,38.3,108.3,38.4,108.3,38.6z"/>
<path class="st1" d="M193.7,101.6c-0.1-0.1-0.1-0.3-0.1-0.4C193.8,101.3,193.7,101.5,193.7,101.6z"/>
<path class="st3" d="M136.3,86.2c0,0.1,0,0.3-0.1,0.4C136.2,86.5,136.1,86.3,136.3,86.2z"/>
<path class="st3" d="M134.7,32.7c0-0.1,0-0.3,0.1-0.4C134.7,32.5,134.8,32.6,134.7,32.7z"/>
<path class="st3" d="M134.7,32c-0.1-0.1-0.1-0.3-0.1-0.4C134.8,31.7,134.7,31.8,134.7,32z"/>
<path class="st3" d="M114.7,29.5c0.1,0,0.3,0,0.4,0.1C114.9,29.5,114.8,29.6,114.7,29.5z"/>
<path class="st3" d="M138.7,86.7c0-0.1,0-0.3,0.1-0.4C138.7,86.4,138.8,86.5,138.7,86.7z"/>
<path class="st3" d="M136.2,86.8c0,0.1,0,0.3-0.1,0.4C136.1,87.1,136.1,86.9,136.2,86.8z"/>
<path class="st3" d="M138.6,87.4c0-0.1,0-0.3,0.1-0.4C138.7,87.1,138.7,87.2,138.6,87.4z"/>
<path class="st1" d="M115.1,93.2c-0.1,0-0.3,0-0.4-0.1C114.9,93.1,115,93.1,115.1,93.2z"/>
<path class="st3" d="M164.2,127.2c-0.1,0.1-0.3,0.1-0.4,0.1C163.9,127.1,164.1,127.2,164.2,127.2z"/>
<path class="st1" d="M183.3,93.1c-0.1,0.1-0.3,0.1-0.4,0.1C183,93.1,183.2,93.1,183.3,93.1z"/>
<path class="st3" d="M115.1,24.3c-0.1,0.1-0.3,0.1-0.4,0.1C114.8,24.3,114.9,24.4,115.1,24.3z"/>
<path class="st1" d="M185.9,93.2c-0.1,0-0.3,0-0.4-0.1C185.7,93.1,185.8,93.1,185.9,93.2z"/>
<path class="st3" d="M143,67.4c-0.1,0-0.3,0-0.4,0C142.7,67.3,142.8,67.3,143,67.4z"/>
<path class="st1" d="M21,84.8c-1.4-1-3-1.7-4.7-1.8c0,0-0.1,0-0.1,0c-1.2-0.1-2.3,0-3.5,0c-0.1,0-0.3,0-0.4,0.1c0,9.4,0,18.8,0,28.1
	c0.4,0,0.8,0,1.2,0c0.3,0,0.4-0.1,0.4-0.4c0-2.6,0-5.3,0-7.9c0-0.3,0.1-0.4,0.3-0.4c0.8,0,1.6,0,2.4-0.1c4-0.6,7.2-3.6,8.2-7.4
	C25.8,91.2,24.3,87.2,21,84.8z M23.4,93.6c-0.5,3.7-3.2,6.6-6.8,7.2c-0.8,0.1-1.7,0.1-2.5,0.1c-0.3,0-0.2-0.2-0.2-0.4
	c0-2.6,0-5.2,0-7.8c0-2.6,0-5.2,0-7.8c0-0.3,0.1-0.4,0.4-0.4c1.5,0,2.9,0.1,4.3,0.7C21.8,86.7,23.9,90.3,23.4,93.6z"/>
<path class="st1" d="M224.9,103.2c0.8,0,0.8,0,0.9-0.8c0-0.1,0-0.1,0-0.2c-0.1-0.7-0.2-1.4-0.4-2.1c-0.8-2.6-2.3-4.6-4.7-5.9
	c-0.9-0.5-1.8-0.7-2.8-0.9c-0.1-0.1-0.3,0-0.4-0.1c-0.1,0-0.2,0-0.3,0c-0.5-0.1-1,0-1.6,0c-2.7,0.3-4.9,1.4-6.6,3.5
	c-1.1,1.4-1.8,2.9-2,4.7c-0.1,0.1,0,0.3-0.1,0.4c0,0.2,0,0.5,0,0.7c0,0.1,0,0.3,0,0.4c0,0.2,0,0.3,0,0.5c0.1,0.1,0,0.3,0.1,0.4
	c0.1,0.6,0.2,1.1,0.4,1.7c0.6,1.9,1.7,3.4,3.3,4.5c1.3,1,2.8,1.6,4.4,1.8c0.2,0.1,0.5,0,0.7,0.1c0.3,0,0.5,0,0.8,0
	c0.2-0.1,0.5,0,0.7-0.1c0.2,0,0.4-0.1,0.6-0.1c1.8-0.3,3.4-1.2,4.8-2.5c0.2-0.1,0.2-0.2,0-0.4c-0.3-0.2-0.5-0.5-0.8-0.8
	c-0.1-0.1-0.2-0.2-0.3,0c-0.5,0.4-1,0.8-1.5,1.1c-0.9,0.5-1.8,0.9-2.9,1c-0.1,0.1-0.3,0-0.4,0.1c-0.4,0-0.8,0-1.2,0
	c-0.1-0.1-0.3,0-0.4-0.1c-0.1,0-0.3,0-0.4,0c-3.1-0.6-5.7-3.1-6.3-6.3c0-0.1-0.1-0.3,0.1-0.5c0.1,0,0.2,0,0.3,0c5.4,0,10.8,0,16.2,0
	c0.1,0,0.2,0,0.3,0c0.1,0,0.1-0.1,0.1-0.1c-0.1-0.1-0.2,0-0.3,0c-5.4,0-10.8,0-16.2,0c0,0,0.1,0,0.1,0
	C214.5,103.2,219.7,103.2,224.9,103.2z M208.7,101.2c0.5-3.2,3.4-6,6.6-6.4c4.1-0.5,7.9,2.3,8.6,6.3c0.1,0.5,0.1,0.5-0.4,0.5
	c-2.4,0-4.8,0-7.2,0c-2.4,0-4.8,0-7.3,0C208.7,101.7,208.7,101.5,208.7,101.2z"/>
<path class="st1" d="M225.7,102.3c0.1,0.3,0.1,0.6,0,0.9c-5.6,0-11.3,0-16.9,0c0,0,0-0.1,0-0.1c0.1,0,0.3,0,0.4,0
	c5.3,0,10.5,0,15.8,0c0.6,0,0.6,0,0.6-0.6C225.6,102.4,225.6,102.4,225.7,102.3z"/>
<path class="st1" d="M193.7,103.1c0-0.5,0-1,0-1.5c-0.1-0.1,0-0.3-0.1-0.4c0-0.2-0.1-0.4-0.1-0.6c-0.7-3-2.4-5.1-5.1-6.5
	c-0.8-0.4-1.7-0.7-2.5-0.9c-0.1-0.1-0.3,0-0.4-0.1c-0.1,0-0.2,0-0.3,0c-0.5,0-1.1,0-1.6,0c-0.1,0-0.2,0-0.3,0
	c-0.1,0.1-0.3,0-0.4,0.1c-1.4,0.3-2.7,0.7-3.9,1.6c-1.2,0.9-2.2,2-2.9,3.3c-0.6,1.1-1,2.3-1.1,3.6c-0.1,0.6,0,1.1,0,1.7
	c0,1,0.3,2,0.8,2.9c0.7,1.4,1.6,2.7,2.9,3.6c1.4,1,2.8,1.6,4.5,1.8c0.2,0.1,0.4,0,0.6,0.1c0.3,0,0.5,0,0.8,0c0.2-0.1,0.5,0,0.7-0.1
	c0.2,0,0.4-0.1,0.6-0.1c2.9-0.6,5.1-2.2,6.6-4.8c0.6-1,0.9-2.2,1.1-3.4C193.7,103.4,193.6,103.2,193.7,103.1z M184.3,110.1
	c-4.2,0-7.7-3.5-7.7-7.7c0-4.2,3.5-7.7,7.8-7.7c4.2,0,7.7,3.5,7.7,7.7C192.1,106.6,188.6,110.1,184.3,110.1z"/>
<path class="st1" d="M120,93.7c-1,0-0.8-0.1-0.9,0.8c0,0.1,0,0.1-0.1,0.2c-0.4-0.2-0.7-0.4-1.1-0.6c-0.9-0.5-1.8-0.7-2.8-0.9
	c-0.1-0.1-0.3,0-0.4-0.1c-0.1,0-0.2,0-0.3,0c-0.5,0-1,0-1.5,0c-0.3,0-0.5,0.1-0.8,0.1c-4.5,0.8-7.7,4.6-7.8,9.2
	c-0.1,4.7,3.5,8.8,8.2,9.4c0.2,0.1,0.4,0,0.6,0.1c0.3,0,0.5,0,0.8,0c0.3-0.1,0.5,0,0.8-0.1c0.4-0.1,0.8-0.1,1.2-0.2
	c1.1-0.2,2.1-0.8,3-1.3c0.1,0,0.1,0.1,0.2,0.1c0,0.8,0,0.8,0.9,0.8c0.1,0,0,0,0,0c0.6,0,0.6,0,0.7-0.7c0-5.4,0-10.7,0-16.1
	C120.7,93.7,120.7,93.7,120,93.7z M119.1,107.7c0,0.1,0,0.2,0,0.3c-1.2,1.1-2.6,1.9-4.3,2.1c-4,0.6-7.9-2.1-8.7-6.1
	c-0.7-3.2,0.8-6.5,3.7-8.2c2.8-1.7,6.3-1.4,8.9,0.8c0.1,0.1,0.2,0.2,0.4,0.3c0.1,0.1,0.1,0.2,0.1,0.3
	C119.1,100.7,119.1,104.2,119.1,107.7z"/>
<path class="st1" d="M119.1,107.9c0-3.5,0-7,0-10.5c0-0.2,0-0.3,0-0.5c0.1,0.1,0.1,0.2,0.1,0.3c0,3.5,0,7.1,0,10.6
	C119.2,107.9,119.2,107.9,119.1,107.9C119.2,108,119.1,108,119.1,107.9C119.1,108,119.1,107.9,119.1,107.9z"/>
<path class="st1" d="M44.3,94.3c0-0.1,0-0.2,0-0.3c0-0.2-0.1-0.3-0.3-0.3c-0.3,0-0.6,0-0.9,0c-0.2,0-0.3,0.1-0.3,0.3
	c0,0.3,0.1,0.5-0.1,0.8c-0.1,0-0.1-0.1-0.2-0.1c-2.1-1.4-4.5-1.9-7-1.4c-4.8,1-8.5,5.7-7.4,11c1.3,6.6,8.7,9.6,14.3,6
	c0.1-0.1,0.2-0.1,0.3-0.1c0.1,0.2,0,0.5,0.1,0.7c0,0.2,0.1,0.3,0.3,0.3c0.3,0,0.6,0,1,0c0.2,0,0.3-0.1,0.3-0.3c0-0.1,0-0.2,0-0.3
	C44.3,105.1,44.3,99.7,44.3,94.3z M42.8,107.6c0,0.1,0,0.2,0,0.3c-1,1.1-2.3,1.8-3.8,2.1c-4.2,1-8.3-1.8-9.2-6.1c-0.8-4,2-8.2,6.1-9
	c2.7-0.5,5,0.3,6.9,2.1c0.1,0.1,0,0.2,0,0.3C42.8,100.7,42.8,104.1,42.8,107.6z"/>
<path class="st1" d="M42.7,107.9c0-0.8,0-1.7,0-2.5c0-2.8,0-5.6,0-8.3c0.2,0,0.1,0.1,0.1,0.1c0,3.5,0,7.1,0,10.6
	C42.8,107.8,42.8,107.8,42.7,107.9C42.8,107.9,42.7,107.9,42.7,107.9C42.7,107.9,42.7,107.9,42.7,107.9z"/>
<path class="st1" d="M153.1,96.1c0-3.8,0-7.6,0-11.4c0,0,0,0,0,0C153.1,88.5,153.1,92.3,153.1,96.1
	C153.1,96.1,153.1,96.1,153.1,96.1z"/>
<path class="st1" d="M168.4,97.1c0-4.5,0-9,0-13.5c0-0.5,0-0.5,0.5-0.5c0.8,0,0.8,0,0.8,0.8c0,8.9,0,17.7,0,26.6
	c0,0.6,0.1,0.6-0.6,0.6c-0.8,0-0.8,0-0.8-0.8C168.4,105.9,168.4,101.5,168.4,97.1z"/>
<path class="st1" d="M99.1,102.4c0,2.7,0,5.5,0,8.2c0,0.4-0.1,0.5-0.5,0.4c-0.9,0-0.9,0-0.9-0.9c0-5.3,0-10.6,0-15.9
	c0-0.5,0-0.5,0.5-0.5c0.8,0,0.8,0,0.8,0.8C99.1,97.2,99.1,99.8,99.1,102.4z"/>
<path class="st1" d="M71.7,102.5c0,2.7,0,5.5,0,8.2c0,0.3-0.1,0.4-0.4,0.4c-0.9,0-0.9,0-0.9-0.9c0-5.3,0-10.6,0-15.8
	c0-0.5,0-0.5,0.5-0.5c0.8,0,0.8,0,0.8,0.8C71.7,97.3,71.7,99.9,71.7,102.5z"/>
<path class="st1" d="M200.4,97.4c0,0.5,0,1,0,1.4c0,3.9,0,7.8,0,11.8c0,0.2,0,0.3,0,0.5c-0.1-0.1-0.1-0.3-0.1-0.4
	c0-4.3,0-8.6,0-12.9C200.3,97.7,200.3,97.5,200.4,97.4z"/>
<g>
	<path class="st0" d="M91.7,126l-1.5-2.1c-0.2,0-0.3,0-0.4,0H88v2.1h-1v-6.9h2.7c0.9,0,1.6,0.2,2.1,0.6s0.8,1,0.8,1.8
		c0,0.5-0.1,1-0.4,1.4c-0.3,0.4-0.6,0.6-1.1,0.8l1.6,2.3H91.7z M91.1,122.7c0.3-0.3,0.5-0.7,0.5-1.2c0-0.5-0.2-0.9-0.5-1.2
		c-0.3-0.3-0.8-0.4-1.4-0.4H88v3.1h1.7C90.3,123.1,90.8,123,91.1,122.7z"/>
	<path class="st0" d="M99.2,125.2v0.9h-5v-6.9h4.9v0.9h-3.9v2.1h3.5v0.8h-3.5v2.2H99.2z"/>
	<path class="st0" d="M105.2,124.3h-3.7l-0.8,1.7h-1l3.1-6.9h1l3.1,6.9h-1L105.2,124.3z M104.9,123.5l-1.5-3.4l-1.5,3.4H104.9z"/>
	<path class="st0" d="M113.7,123.1c0.2,0.3,0.3,0.7,0.3,1.1c0,0.6-0.2,1.1-0.7,1.4c-0.5,0.3-1.1,0.5-2,0.5h-3.3v-6.9h3.1
		c0.8,0,1.4,0.2,1.8,0.5s0.6,0.8,0.6,1.3c0,0.4-0.1,0.7-0.3,0.9s-0.4,0.5-0.7,0.6C113.1,122.6,113.4,122.8,113.7,123.1z
		 M109.1,119.9v2.2h2c0.5,0,0.9-0.1,1.2-0.3c0.3-0.2,0.4-0.5,0.4-0.8c0-0.4-0.1-0.6-0.4-0.8c-0.3-0.2-0.7-0.3-1.2-0.3H109.1z
		 M112.6,125c0.3-0.2,0.4-0.5,0.4-0.9c0-0.8-0.6-1.2-1.7-1.2h-2.3v2.3h2.3C111.9,125.2,112.3,125.1,112.6,125z"/>
	<path class="st0" d="M115.5,119.1h1v6.9h-1V119.1z"/>
	<path class="st0" d="M118.6,119.1h1v6.1h3.7v0.9h-4.7V119.1z"/>
	<path class="st0" d="M124.5,119.1h1v6.9h-1V119.1z"/>
	<path class="st0" d="M128.9,120h-2.4v-0.9h5.7v0.9h-2.4v6.1h-1V120z"/>
	<path class="st0" d="M137.4,124.3h-3.7L133,126h-1l3.1-6.9h1l3.1,6.9h-1L137.4,124.3z M137,123.5l-1.5-3.4l-1.5,3.4H137z"/>
	<path class="st0" d="M141.3,125.7c-0.6-0.3-1-0.7-1.3-1.3c-0.3-0.5-0.5-1.1-0.5-1.8c0-0.7,0.2-1.3,0.5-1.8c0.3-0.5,0.8-1,1.3-1.3
		c0.6-0.3,1.2-0.5,1.9-0.5c0.5,0,1,0.1,1.5,0.3c0.4,0.2,0.8,0.4,1.1,0.8l-0.6,0.6c-0.5-0.5-1.2-0.8-1.9-0.8c-0.5,0-1,0.1-1.4,0.3
		c-0.4,0.2-0.7,0.5-1,1c-0.2,0.4-0.4,0.9-0.4,1.4c0,0.5,0.1,1,0.4,1.4c0.2,0.4,0.6,0.7,1,1c0.4,0.2,0.9,0.3,1.4,0.3
		c0.8,0,1.4-0.3,1.9-0.8l0.6,0.6c-0.3,0.4-0.7,0.6-1.2,0.8c-0.5,0.2-0.9,0.3-1.5,0.3C142.5,126.1,141.9,126,141.3,125.7z M141.9,128
		l0.2-0.5c0.2,0.1,0.4,0.2,0.7,0.2c0.4,0,0.6-0.1,0.6-0.4c0-0.1,0-0.2-0.1-0.3c-0.1-0.1-0.2-0.1-0.4-0.1h-0.3l0.2-1h0.5l-0.1,0.6
		c0.3,0,0.5,0.1,0.6,0.3c0.1,0.1,0.2,0.3,0.2,0.6c0,0.3-0.1,0.5-0.3,0.7c-0.2,0.2-0.5,0.2-0.9,0.2
		C142.5,128.3,142.2,128.2,141.9,128z"/>
	<path class="st0" d="M151.5,124.3h-3.7l-0.8,1.7h-1l3.1-6.9h1l3.1,6.9h-1L151.5,124.3z M149.9,118.4c-0.1-0.1-0.3-0.2-0.4-0.3
		c-0.1-0.1-0.2-0.2-0.3-0.2s-0.1-0.1-0.2-0.1c-0.1,0-0.3,0.1-0.4,0.2s-0.1,0.3-0.1,0.4H148c0-0.4,0.1-0.7,0.3-0.9
		c0.2-0.2,0.4-0.3,0.7-0.3c0.2,0,0.3,0,0.4,0.1c0.1,0.1,0.3,0.2,0.4,0.3c0.1,0.1,0.2,0.2,0.3,0.2c0.1,0,0.1,0.1,0.2,0.1
		c0.1,0,0.3-0.1,0.4-0.2c0.1-0.1,0.1-0.2,0.1-0.4h0.5c0,0.4-0.1,0.6-0.3,0.9c-0.2,0.2-0.4,0.3-0.7,0.3
		C150.2,118.5,150.1,118.5,149.9,118.4z M151.1,123.5l-1.5-3.4l-1.5,3.4H151.1z"/>
	<path class="st0" d="M155.5,125.7c-0.6-0.3-1-0.7-1.3-1.3c-0.3-0.5-0.5-1.1-0.5-1.8s0.2-1.3,0.5-1.8c0.3-0.5,0.8-1,1.3-1.3
		c0.6-0.3,1.2-0.5,1.9-0.5c0.7,0,1.3,0.2,1.9,0.5s1,0.7,1.3,1.3c0.3,0.5,0.5,1.1,0.5,1.8c0,0.7-0.2,1.3-0.5,1.8
		c-0.3,0.5-0.8,1-1.3,1.3c-0.6,0.3-1.2,0.5-1.9,0.5C156.6,126.1,156,126,155.5,125.7z M158.7,124.9c0.4-0.2,0.7-0.5,1-1
		s0.4-0.9,0.4-1.4c0-0.5-0.1-1-0.4-1.4c-0.2-0.4-0.6-0.7-1-1s-0.9-0.3-1.4-0.3s-1,0.1-1.4,0.3c-0.4,0.2-0.7,0.5-1,1
		c-0.2,0.4-0.4,0.9-0.4,1.4c0,0.5,0.1,1,0.4,1.4c0.2,0.4,0.6,0.7,1,1c0.4,0.2,0.9,0.3,1.4,0.3S158.3,125.1,158.7,124.9z"/>
	<path class="st0" d="M171.1,119.1v6.9h-0.8l-4.1-5.2v5.2h-1v-6.9h0.8l4.1,5.2v-5.2H171.1z"/>
	<path class="st0" d="M173.9,125.3c-0.5-0.5-0.8-1.3-0.8-2.3v-3.9h1v3.9c0,1.5,0.6,2.2,1.9,2.2c0.6,0,1.1-0.2,1.5-0.5
		c0.3-0.4,0.5-0.9,0.5-1.7v-3.9h1v3.9c0,1-0.3,1.8-0.8,2.3s-1.2,0.8-2.2,0.8S174.4,125.9,173.9,125.3z"/>
	<path class="st0" d="M182.2,120h-2.4v-0.9h5.7v0.9h-2.4v6.1h-1V120z"/>
	<path class="st0" d="M191.3,126l-1.5-2.1c-0.2,0-0.3,0-0.4,0h-1.7v2.1h-1v-6.9h2.7c0.9,0,1.6,0.2,2.1,0.6s0.8,1,0.8,1.8
		c0,0.5-0.1,1-0.4,1.4c-0.3,0.4-0.6,0.6-1.1,0.8l1.6,2.3H191.3z M190.8,122.7c0.3-0.3,0.5-0.7,0.5-1.2c0-0.5-0.2-0.9-0.5-1.2
		s-0.8-0.4-1.4-0.4h-1.7v3.1h1.7C190,123.1,190.4,123,190.8,122.7z"/>
	<path class="st0" d="M193.8,119.1h1v6.9h-1V119.1z"/>
	<path class="st0" d="M198.1,125.7c-0.6-0.3-1-0.7-1.3-1.3c-0.3-0.5-0.5-1.1-0.5-1.8c0-0.7,0.2-1.3,0.5-1.8c0.3-0.5,0.8-1,1.3-1.3
		c0.6-0.3,1.2-0.5,1.9-0.5c0.5,0,1,0.1,1.5,0.3c0.4,0.2,0.8,0.4,1.1,0.8l-0.6,0.6c-0.5-0.5-1.2-0.8-1.9-0.8c-0.5,0-1,0.1-1.4,0.3
		c-0.4,0.2-0.7,0.5-1,1c-0.2,0.4-0.4,0.9-0.4,1.4c0,0.5,0.1,1,0.4,1.4c0.2,0.4,0.6,0.7,1,1c0.4,0.2,0.9,0.3,1.4,0.3
		c0.8,0,1.4-0.3,1.9-0.8l0.6,0.6c-0.3,0.4-0.7,0.6-1.2,0.8c-0.5,0.2-0.9,0.3-1.5,0.3C199.3,126.1,198.7,126,198.1,125.7z"/>
	<path class="st0" d="M204.1,119.1h1v6.9h-1V119.1z"/>
	<path class="st0" d="M208.3,125.7c-0.6-0.3-1-0.7-1.3-1.3s-0.5-1.1-0.5-1.8s0.2-1.3,0.5-1.8c0.3-0.5,0.8-1,1.3-1.3s1.2-0.5,1.9-0.5
		c0.7,0,1.3,0.2,1.9,0.5s1,0.7,1.3,1.3c0.3,0.5,0.5,1.1,0.5,1.8c0,0.7-0.2,1.3-0.5,1.8c-0.3,0.5-0.8,1-1.3,1.3
		c-0.6,0.3-1.2,0.5-1.9,0.5C209.5,126.1,208.9,126,208.3,125.7z M211.6,124.9c0.4-0.2,0.7-0.5,1-1c0.2-0.4,0.4-0.9,0.4-1.4
		c0-0.5-0.1-1-0.4-1.4c-0.2-0.4-0.6-0.7-1-1c-0.4-0.2-0.9-0.3-1.4-0.3c-0.5,0-1,0.1-1.4,0.3c-0.4,0.2-0.7,0.5-1,1
		c-0.2,0.4-0.4,0.9-0.4,1.4c0,0.5,0.1,1,0.4,1.4c0.2,0.4,0.6,0.7,1,1c0.4,0.2,0.9,0.3,1.4,0.3C210.7,125.2,211.2,125.1,211.6,124.9z
		"/>
	<path class="st0" d="M221.4,119.1v6.9h-0.8l-4.1-5.2v5.2h-1v-6.9h0.8l4.1,5.2v-5.2H221.4z"/>
	<path class="st0" d="M227.8,124.3h-3.7l-0.8,1.7h-1l3.1-6.9h1l3.1,6.9h-1L227.8,124.3z M227.5,123.5l-1.5-3.4l-1.5,3.4H227.5z"/>
	<path class="st0" d="M230.7,119.1h1v6.1h3.7v0.9h-4.7V119.1z"/>
</g>
</svg>
