<?xml version="1.0" encoding="UTF-8"?>
<svg id="Camada_1" data-name="Camada 1" xmlns="http://www.w3.org/2000/svg" viewBox="0 0 1606.02 481.13">
  <defs>
    <style>
      .cls-1 {
        fill: #1d1d1b;
        font-family: Poppins-Light, Poppins;
        font-size: 103.08px;
        font-weight: 300;
      }

      .cls-2 {
        fill: #fff;
      }

      .cls-3, .cls-4 {
        fill: #42535e;
      }

      .cls-5, .cls-6 {
        fill: #4f6c78;
      }

      .cls-7 {
        fill: #f3cccf;
      }

      .cls-7, .cls-8, .cls-6, .cls-4, .cls-9, .cls-10, .cls-11, .cls-12, .cls-13, .cls-14, .cls-15 {
        fill-rule: evenodd;
      }

      .cls-8 {
        fill: #281c19;
      }

      .cls-9 {
        fill: #cbdeca;
      }

      .cls-10 {
        fill: #d0e1f0;
      }

      .cls-11 {
        fill: #deaaad;
      }

      .cls-12 {
        fill: #cf8964;
      }

      .cls-13 {
        fill: #8dbc94;
      }

      .cls-14 {
        fill: #8fbac9;
      }

      .cls-15 {
        fill: #edbea2;
      }
    </style>
  </defs>
  <g>
    <circle class="cls-2" cx="1310.22" cy="159.71" r="46.66"/>
    <circle class="cls-2" cx="1197.27" cy="252.67" r="46.66"/>
    <circle class="cls-2" cx="1311.31" cy="344.2" r="46.66"/>
    <circle class="cls-2" cx="1426.05" cy="251.16" r="46.66"/>
    <g>
      <path class="cls-4" d="m106.95,268.35c4.3,2.26,11.18,4.51,18.17,4.51,7.53,0,11.5-3.11,11.5-7.84s-3.44-7.1-12.15-10.11c-12.04-4.3-20-10.97-20-21.5,0-12.37,10.43-21.72,27.41-21.72,8.28,0,14.19,1.61,18.49,3.66l-3.65,13.12c-2.8-1.4-8.07-3.44-15.05-3.44s-10.53,3.33-10.53,6.99c0,4.62,3.97,6.66,13.43,10.21,12.8,4.73,18.71,11.39,18.71,21.61,0,12.15-9.24,22.47-29.13,22.47-8.28,0-16.45-2.26-20.53-4.52l3.33-13.43Z"/>
      <path class="cls-4" d="m216.59,258.35c0,19.24-13.65,28.06-27.74,28.06-15.37,0-27.19-10.11-27.19-27.09s11.18-27.95,28.16-27.95c16.02,0,26.77,11.07,26.77,26.98m-38.05.54c0,9.03,3.76,15.81,10.75,15.81,6.46,0,10.43-6.34,10.43-15.91,0-7.74-3.01-15.69-10.43-15.69s-10.75,8.06-10.75,15.8Z"/>
      <path class="cls-4" d="m266.46,283.83c-2.9,1.4-8.38,2.47-14.62,2.47-16.98,0-27.84-10.43-27.84-26.87,0-15.37,10.54-27.95,30.1-27.95,4.3,0,9.03.75,12.47,2.04l-2.58,12.15c-1.94-.86-4.84-1.61-9.14-1.61-8.6,0-14.19,6.12-14.08,14.73,0,9.57,6.45,14.73,14.4,14.73,3.87,0,6.88-.65,9.35-1.72l1.94,12.04Z"/>
      <path class="cls-4" d="m292.36,218.03c0,4.52-3.34,8.17-8.82,8.17-5.16,0-8.49-3.66-8.49-8.17s3.44-8.17,8.71-8.17,8.49,3.55,8.6,8.17m-16.88,67.19v-52.57h16.34v52.57h-16.34Z"/>
      <path class="cls-4" d="m317.5,264.16c.43,6.77,7.21,10,14.83,10,5.59,0,10.1-.75,14.51-2.26l2.15,11.07c-5.37,2.26-11.93,3.33-19.03,3.33-17.84,0-28.06-10.32-28.06-26.77,0-13.33,8.28-28.06,26.55-28.06,16.99,0,23.43,13.22,23.43,26.23,0,2.79-.32,5.27-.54,6.45h-33.86Zm19.24-11.18c0-3.98-1.72-10.64-9.25-10.64-6.88,0-9.68,6.34-10.1,10.64h19.35Z"/>
      <path class="cls-4" d="m412.63,208.9v60.63c0,5.91.21,12.15.43,15.7h-14.51l-.64-7.63h-.32c-3.22,5.81-9.68,8.82-16.45,8.82-12.47,0-22.47-10.65-22.47-26.98-.11-17.74,10.96-28.05,23.54-28.05,6.56,0,11.5,2.36,13.87,5.91h.21v-28.38h16.34Zm-16.34,46.01c0-.86,0-2.04-.21-3.01-.97-4.3-4.52-7.96-9.57-7.96-7.52,0-11.29,6.67-11.29,14.94,0,8.92,4.41,14.51,11.18,14.51,4.73,0,8.6-3.23,9.57-7.85.21-1.18.32-2.47.32-3.76v-6.88Z"/>
      <path class="cls-4" d="m469.49,272.54c0,4.94.21,9.78.86,12.68h-14.73l-.97-5.27h-.32c-3.44,4.19-8.81,6.45-15.05,6.45-10.65,0-16.99-7.74-16.99-16.13,0-13.65,12.25-20.1,30.85-20.1v-.64c0-2.9-1.51-6.88-9.57-6.88-5.38,0-11.07,1.83-14.51,3.98l-3.01-10.53c3.65-2.05,10.86-4.73,20.43-4.73,17.52,0,23,10.32,23,22.79v18.38Zm-15.8-12.15c-8.6,0-15.27,2.05-15.27,8.28,0,4.19,2.79,6.23,6.45,6.23,3.97,0,7.41-2.69,8.5-6.02.21-.86.32-1.83.32-2.8v-5.7Z"/>
      <path class="cls-4" d="m533.44,208.9v60.63c0,5.91.22,12.15.43,15.7h-14.51l-.64-7.63h-.32c-3.23,5.81-9.68,8.82-16.45,8.82-12.47,0-22.47-10.65-22.47-26.98-.1-17.74,10.97-28.05,23.54-28.05,6.56,0,11.5,2.36,13.87,5.91h.21v-28.38h16.34Zm-16.34,46.01c0-.86,0-2.04-.21-3.01-.97-4.3-4.52-7.96-9.57-7.96-7.53,0-11.29,6.67-11.29,14.94,0,8.92,4.41,14.51,11.19,14.51,4.73,0,8.6-3.23,9.56-7.85.22-1.18.32-2.47.32-3.76v-6.88Z"/>
      <path class="cls-4" d="m559.12,264.16c.43,6.77,7.2,10,14.84,10,5.59,0,10.1-.75,14.51-2.26l2.15,11.07c-5.37,2.26-11.93,3.33-19.03,3.33-17.84,0-28.05-10.32-28.05-26.77,0-13.33,8.28-28.06,26.55-28.06,16.99,0,23.44,13.22,23.44,26.23,0,2.79-.33,5.27-.54,6.45h-33.86Zm19.24-11.18c0-3.98-1.72-10.64-9.25-10.64-6.87,0-9.67,6.34-10.1,10.64h19.35Z"/>
      <path class="cls-4" d="m625.54,213.74c4.3-.75,12.9-1.5,21.18-1.5,10,0,16.13.97,21.5,4.08,5.05,2.69,8.6,7.63,8.6,14.3s-3.76,12.25-11.94,15.37v.21c8.28,2.15,14.41,8.49,14.41,17.74,0,6.66-3.01,11.82-7.52,15.48-5.27,4.19-14.08,6.55-28.48,6.55-8.07,0-14.08-.54-17.74-1.07v-71.16Zm16.24,27.74h5.37c8.71,0,13.22-3.55,13.22-8.92s-4.19-8.39-11.61-8.39c-3.66,0-5.7.22-6.99.43v16.88Zm0,32.14c1.61.21,3.55.21,6.34.21,7.42,0,13.98-2.9,13.98-10.54,0-7.2-6.56-10.1-14.73-10.1h-5.59v20.43Z"/>
      <path class="cls-4" d="m689.92,249.96c0-7.74-.11-12.79-.43-17.3h13.97l.65,9.68h.43c2.69-7.74,9.03-10.97,14.19-10.97,1.51,0,2.26.1,3.44.32v15.38c-1.28-.22-2.57-.43-4.41-.43-6.02,0-10.1,3.23-11.18,8.28-.22,1.08-.32,2.37-.32,3.66v26.66h-16.34v-35.26Z"/>
      <path class="cls-4" d="m773.33,272.54c0,4.94.22,9.78.86,12.68h-14.73l-.97-5.27h-.32c-3.44,4.19-8.81,6.45-15.05,6.45-10.64,0-16.98-7.74-16.98-16.13,0-13.65,12.25-20.1,30.85-20.1v-.64c0-2.9-1.51-6.88-9.57-6.88-5.37,0-11.07,1.83-14.52,3.98l-3.01-10.53c3.65-2.05,10.86-4.73,20.43-4.73,17.52,0,23,10.32,23,22.79v18.38Zm-15.8-12.15c-8.6,0-15.26,2.05-15.26,8.28,0,4.19,2.79,6.23,6.44,6.23,3.98,0,7.42-2.69,8.5-6.02.21-.86.32-1.83.32-2.8v-5.7Z"/>
      <path class="cls-4" d="m786.22,271.03c3.02,1.83,9.25,3.87,14.08,3.87s6.99-1.61,6.99-4.3-1.61-4.08-7.63-6.13c-10.97-3.66-15.16-9.57-15.05-15.8,0-9.89,8.38-17.3,21.39-17.3,6.13,0,11.5,1.5,14.73,3.11l-2.8,11.29c-2.37-1.29-6.99-3.01-11.39-3.01-3.98,0-6.24,1.61-6.24,4.19s2.05,3.87,8.5,6.12c10,3.44,14.09,8.6,14.19,16.23,0,9.89-7.63,17.09-22.68,17.09-6.88,0-13.01-1.61-16.98-3.76l2.9-11.61Z"/>
      <path class="cls-4" d="m849.85,218.03c0,4.52-3.33,8.17-8.81,8.17-5.16,0-8.5-3.66-8.5-8.17s3.44-8.17,8.71-8.17,8.49,3.55,8.6,8.17m-16.88,67.19v-52.57h16.34v52.57h-16.34Z"/>
      <rect class="cls-3" x="862.42" y="208.9" width="16.34" height="76.32"/>
      <path class="cls-4" d="m904.55,264.16c.43,6.77,7.21,10,14.84,10,5.59,0,10.11-.75,14.52-2.26l2.14,11.07c-5.37,2.26-11.93,3.33-19.02,3.33-17.85,0-28.06-10.32-28.06-26.77,0-13.33,8.28-28.06,26.55-28.06,16.98,0,23.43,13.22,23.43,26.23,0,2.79-.33,5.27-.54,6.45h-33.87Zm19.24-11.18c0-3.98-1.71-10.64-9.24-10.64-6.88,0-9.68,6.34-10.11,10.64h19.35Z"/>
      <path class="cls-4" d="m965.6,218.03c0,4.52-3.33,8.17-8.81,8.17-5.16,0-8.5-3.66-8.5-8.17s3.44-8.17,8.71-8.17,8.49,3.55,8.59,8.17m-16.88,67.19v-52.57h16.34v52.57h-16.34Z"/>
      <path class="cls-4" d="m978.18,249.96c0-7.74-.1-12.79-.42-17.3h13.97l.65,9.68h.43c2.69-7.74,9.03-10.97,14.19-10.97,1.5,0,2.26.1,3.44.32v15.38c-1.29-.22-2.58-.43-4.41-.43-6.02,0-10.1,3.23-11.19,8.28-.21,1.08-.32,2.37-.32,3.66v26.66h-16.34v-35.26Z"/>
      <path class="cls-4" d="m1061.59,272.54c0,4.94.22,9.78.86,12.68h-14.72l-.97-5.27h-.32c-3.44,4.19-8.81,6.45-15.05,6.45-10.64,0-16.98-7.74-16.98-16.13,0-13.65,12.25-20.1,30.85-20.1v-.64c0-2.9-1.51-6.88-9.57-6.88-5.38,0-11.07,1.83-14.51,3.98l-3.01-10.53c3.66-2.05,10.86-4.73,20.43-4.73,17.52,0,23,10.32,23,22.79v18.38Zm-15.8-12.15c-8.59,0-15.26,2.05-15.26,8.28,0,4.19,2.8,6.23,6.45,6.23,3.98,0,7.42-2.69,8.5-6.02.22-.86.32-1.83.32-2.8v-5.7Z"/>
      <path class="cls-6" d="m156.83,337.88v60.63c0,5.91.21,12.15.43,15.69h-14.51l-.64-7.63h-.32c-3.22,5.81-9.68,8.81-16.44,8.81-12.47,0-22.47-10.64-22.47-26.98-.11-17.74,10.97-28.06,23.54-28.06,6.56,0,11.51,2.36,13.87,5.91h.22v-28.38h16.34Zm-16.34,46.01c0-.86,0-2.04-.22-3.01-.97-4.3-4.51-7.96-9.57-7.96-7.52,0-11.29,6.67-11.29,14.94,0,8.92,4.41,14.51,11.18,14.51,4.73,0,8.6-3.22,9.56-7.85.22-1.18.33-2.47.33-3.76v-6.88Z"/>
      <path class="cls-6" d="m182.51,393.13c.43,6.77,7.2,9.99,14.84,9.99,5.59,0,10.1-.75,14.51-2.26l2.15,11.08c-5.37,2.25-11.94,3.33-19.03,3.33-17.85,0-28.06-10.32-28.06-26.77,0-13.34,8.28-28.06,26.55-28.06,16.99,0,23.44,13.22,23.44,26.23,0,2.79-.32,5.27-.54,6.45h-33.86Zm19.24-11.18c0-3.98-1.72-10.64-9.25-10.64-6.88,0-9.68,6.34-10.1,10.64h19.35Z"/>
      <path class="cls-6" d="m248.93,414.2v-72.45h19.14l15.05,26.55c4.31,7.63,8.5,16.66,11.83,24.83h.22c-.97-9.57-1.29-19.35-1.29-30.31v-21.07h15.05v72.45h-17.2l-15.47-27.95c-4.31-7.74-9.14-17.09-12.58-25.59h-.43c.54,9.68.76,19.89.76,31.72v21.82h-15.06Z"/>
      <path class="cls-6" d="m372.11,397.32c0,6.88.21,12.47.43,16.88h-14.19l-.76-7.42h-.32c-2.05,3.23-6.99,8.6-16.45,8.6-10.75,0-18.48-6.66-18.48-22.9v-30.85h16.34v28.27c0,7.63,2.47,12.26,8.28,12.26,4.52,0,7.2-3.12,8.17-5.7.43-.97.65-2.15.65-3.55v-31.28h16.34v35.68Z"/>
      <path class="cls-6" d="m403.49,347.45v14.19h11.72v12.03h-11.72v19.03c0,6.34,1.61,9.25,6.45,9.25,2.26,0,3.33-.11,4.84-.43l.11,12.36c-2.04.75-6.02,1.4-10.53,1.4-5.27,0-9.67-1.83-12.36-4.52-3.01-3.12-4.52-8.17-4.52-15.59v-21.5h-6.98v-12.03h6.98v-9.78l16.02-4.41Z"/>
      <path class="cls-6" d="m424.66,378.94c0-7.74-.11-12.79-.43-17.3h13.97l.64,9.67h.43c2.69-7.74,9.03-10.97,14.19-10.97,1.51,0,2.26.11,3.45.32v15.37c-1.29-.21-2.58-.43-4.41-.43-6.02,0-10.1,3.23-11.18,8.28-.21,1.07-.32,2.36-.32,3.66v26.66h-16.34v-35.26Z"/>
      <path class="cls-6" d="m482.38,347.01c0,4.52-3.34,8.17-8.82,8.17-5.16,0-8.49-3.66-8.49-8.17s3.43-8.17,8.71-8.17,8.49,3.55,8.6,8.17m-16.88,67.19v-52.56h16.34v52.56h-16.34Z"/>
      <path class="cls-6" d="m534.4,412.91c-2.37,1.18-6.77,2.15-12.04,2.37l-2.04,3.76c4.08.97,7.85,3.66,7.85,8.6,0,7.52-6.67,10-12.9,10-3.11,0-6.55-.65-9.03-2.04l2.05-6.67c1.61.86,4.08,1.51,6.02,1.51,2.15,0,3.87-.65,3.87-2.69,0-2.15-2.47-3.33-8.49-3.98l4.3-9.03c-13.65-2.04-22.04-11.83-22.04-26.34,0-15.37,10.53-27.95,30.1-27.95,4.3,0,9.03.75,12.46,2.04l-2.58,12.15c-1.93-.86-4.84-1.61-9.13-1.61-8.6,0-14.19,6.12-14.08,14.72,0,9.68,6.45,14.84,14.3,14.84,3.97,0,6.99-.64,9.46-1.72l1.93,12.04Z"/>
      <path class="cls-6" d="m587.61,401.52c0,4.94.21,9.78.86,12.68h-14.73l-.97-5.27h-.32c-3.45,4.19-8.82,6.45-15.05,6.45-10.65,0-16.99-7.74-16.99-16.12,0-13.65,12.25-20.1,30.85-20.1v-.64c0-2.9-1.5-6.88-9.56-6.88-5.38,0-11.07,1.83-14.51,3.98l-3.01-10.53c3.66-2.05,10.86-4.73,20.43-4.73,17.52,0,23,10.32,23,22.79v18.38Zm-38.16-47.3c-.33-9.03,3.33-14.08,8.81-14.08,2.69,0,4.84,1.07,6.99,2.15,1.72.97,3.22,2.05,4.51,2.05,1.72,0,2.47-.97,2.8-4.73h7.53c.31,9.78-3.12,13.76-8.82,13.76-3.01,0-5.15-1.19-7.41-2.26-1.94-1.08-2.69-1.72-4.08-1.72-1.51,0-2.37,1.61-2.59,4.84h-7.74Zm22.36,35.15c-8.6,0-15.27,2.04-15.27,8.28,0,4.19,2.79,6.23,6.45,6.23,3.98,0,7.42-2.68,8.5-6.02.21-.86.32-1.83.32-2.8v-5.7Z"/>
      <path class="cls-6" d="m652.52,387.33c0,19.24-13.65,28.05-27.73,28.05-15.38,0-27.2-10.1-27.2-27.09s11.18-27.95,28.17-27.95c16.01,0,26.76,11.07,26.76,26.98m-38.05.54c0,9.03,3.76,15.8,10.75,15.8,6.45,0,10.42-6.34,10.42-15.91,0-7.74-3.01-15.69-10.42-15.69s-10.75,8.06-10.75,15.8Z"/>
      <path class="cls-6" d="m751.19,377.22c0,23.86-14.3,38.16-35.58,38.16s-34.08-16.23-34.08-36.98,13.98-37.95,35.26-37.95,34.4,16.66,34.4,36.77m-52.35.86c0,14.3,6.67,24.3,17.63,24.3s17.42-10.53,17.42-24.61c0-13.12-6.13-24.29-17.42-24.29s-17.63,10.53-17.63,24.61Z"/>
      <path class="cls-6" d="m761.82,378.4c0-6.56-.22-12.04-.43-16.77h14.19l.75,7.31h.32c2.15-3.44,7.41-8.49,16.23-8.49,10.75,0,18.81,7.2,18.81,22.68v31.07h-16.34v-29.13c0-6.77-2.37-11.4-8.28-11.4-4.52,0-7.21,3.12-8.39,6.13-.44,1.08-.54,2.58-.54,4.08v30.31h-16.33v-35.8Z"/>
      <path class="cls-6" d="m864.26,412.8c-2.9,1.4-8.38,2.47-14.62,2.47-16.99,0-27.84-10.43-27.84-26.87,0-15.37,10.53-27.95,30.1-27.95,4.29,0,9.02.75,12.46,2.04l-2.58,12.15c-1.94-.86-4.84-1.61-9.14-1.61-8.6,0-14.19,6.12-14.08,14.72,0,9.57,6.44,14.73,14.41,14.73,3.86,0,6.87-.65,9.34-1.72l1.94,12.04Z"/>
      <path class="cls-6" d="m924.02,387.33c0,19.24-13.65,28.05-27.74,28.05-15.36,0-27.19-10.1-27.19-27.09s11.18-27.95,28.17-27.95c16.01,0,26.77,11.07,26.77,26.98m-38.05.54c0,9.03,3.76,15.8,10.75,15.8,6.45,0,10.42-6.34,10.42-15.91,0-7.74-3.01-15.69-10.42-15.69s-10.75,8.06-10.75,15.8Z"/>
      <rect class="cls-5" x="934.11" y="337.88" width="16.34" height="76.32"/>
      <path class="cls-6" d="m1015.59,387.33c0,19.24-13.65,28.05-27.74,28.05-15.37,0-27.19-10.1-27.19-27.09s11.18-27.95,28.17-27.95c16.01,0,26.76,11.07,26.76,26.98m-38.05.54c0,9.03,3.76,15.8,10.75,15.8,6.45,0,10.43-6.34,10.43-15.91,0-7.74-3.01-15.69-10.43-15.69s-10.75,8.06-10.75,15.8Zm27.62-49.13l-13.11,16.34h-11.18l9.24-16.34h15.05Z"/>
      <path class="cls-6" d="m1075.78,406.57c0,10.1-2.04,18.38-8.06,23.65-5.7,4.94-13.54,6.45-21.28,6.45-6.99,0-14.19-1.4-18.92-3.98l3.23-12.47c3.33,1.93,9.03,3.98,15.26,3.98,7.73,0,13.65-4.09,13.65-13.87v-3.33h-.22c-3.12,4.3-8.17,6.77-14.19,6.77-13.01,0-22.25-10.53-22.25-25.58,0-16.99,10.85-27.74,23.86-27.74,7.21,0,11.72,3.12,14.41,7.52h.22l.54-6.34h14.19c-.21,3.44-.43,7.84-.43,15.69v29.24Zm-16.34-23.54c0-.97-.11-2.04-.32-3.01-1.18-4.3-4.3-7.2-8.81-7.2-6.02,0-10.75,5.37-10.75,14.94,0,7.85,3.87,13.98,10.64,13.98,4.3,0,7.63-2.8,8.71-6.56.43-1.29.54-3.01.54-4.41v-7.74Z"/>
      <path class="cls-6" d="m1105.77,347.01c0,4.52-3.34,8.17-8.82,8.17-5.16,0-8.49-3.66-8.49-8.17s3.43-8.17,8.71-8.17,8.49,3.55,8.6,8.17m-16.88,67.19v-52.56h16.34v52.56h-16.34Z"/>
      <path class="cls-6" d="m1157.78,412.8c-2.9,1.4-8.39,2.47-14.62,2.47-16.99,0-27.85-10.43-27.85-26.87,0-15.37,10.54-27.95,30.1-27.95,4.3,0,9.03.75,12.47,2.04l-2.58,12.15c-1.94-.86-4.84-1.61-9.14-1.61-8.6,0-14.19,6.12-14.09,14.72,0,9.57,6.45,14.73,14.41,14.73,3.87,0,6.88-.65,9.36-1.72l1.93,12.04Z"/>
      <path class="cls-6" d="m1210.99,401.52c0,4.94.22,9.78.86,12.68h-14.73l-.97-5.27h-.32c-3.44,4.19-8.82,6.45-15.06,6.45-10.64,0-16.98-7.74-16.98-16.12,0-13.65,12.25-20.1,30.85-20.1v-.64c0-2.9-1.5-6.88-9.56-6.88-5.38,0-11.07,1.83-14.51,3.98l-3.01-10.53c3.66-2.05,10.86-4.73,20.43-4.73,17.52,0,23,10.32,23,22.79v18.38Zm-15.8-12.15c-8.6,0-15.27,2.04-15.27,8.28,0,4.19,2.8,6.23,6.45,6.23,3.98,0,7.42-2.68,8.5-6.02.21-.86.32-1.83.32-2.8v-5.7Z"/>
      <path class="cls-11" d="m1254.62,216.61c-4.91-7.82-11.26-14.39-18.57-19.48l3.93-8.61-24.03-10.95-4.08,8.96c-8.36-1.86-17.14-2.14-25.88-.65l-3.57-9.34-24.66,9.43,3.55,9.3c-7.73,4.83-14.25,11.08-19.32,18.27l-9.39-4.11-10.58,24.19,9.2,4.03c-1.94,8.53-2.25,17.49-.72,26.41l-9.31,3.56,4.72,12.33,4.71,12.33,9.32-3.56c4.91,7.82,11.26,14.39,18.57,19.48l-3.92,8.61,24.03,10.95,4.08-8.97c8.37,1.85,17.13,2.14,25.88.66l3.56,9.33,24.67-9.43-3.56-9.3c7.73-4.83,14.25-11.08,19.32-18.26l9.37,4.11,10.6-24.19-9.21-4.03c1.95-8.52,2.26-17.49.73-26.41l9.32-3.56-4.72-12.33-4.71-12.34-9.31,3.56Zm-46.23,65.1c-16.05,6.13-34.02-1.9-40.16-17.94-6.14-16.04,1.9-34.02,17.95-40.16,16.04-6.13,34.02,1.9,40.15,17.94,6.13,16.04-1.9,34.02-17.94,40.15Z"/>
      <path class="cls-7" d="m1178.78,204.29c-26.72,10.21-40.1,40.15-29.88,66.87,10.21,26.71,40.15,40.09,66.87,29.88,26.72-10.21,40.1-40.15,29.88-66.86-10.21-26.72-40.15-40.1-66.87-29.88m29.6,77.42c-16.05,6.13-34.02-1.9-40.16-17.94-6.14-16.04,1.9-34.02,17.95-40.16,16.04-6.13,34.02,1.9,40.15,17.94,6.13,16.04-1.9,34.02-17.94,40.15Z"/>
      <path class="cls-13" d="m1356.32,107.87c-6.8-6.24-14.67-10.89-23.06-13.87l1.51-9.34-26.07-4.21-1.57,9.73c-8.56.43-17.09,2.47-25.12,6.22l-5.92-8.06-21.29,15.62,5.89,8.02c-6.17,6.71-10.8,14.46-13.8,22.73l-10.13-1.48-3.82,26.13,9.96,1.45c.38,8.74,2.45,17.46,6.29,25.67l-8.04,5.9,7.82,10.64,7.81,10.65,8.04-5.9c6.8,6.24,14.67,10.89,23.06,13.87l-1.51,9.34,26.07,4.2,1.56-9.72c8.56-.43,17.08-2.47,25.12-6.22l5.91,8.05,21.29-15.61-5.89-8.02c6.17-6.71,10.81-14.45,13.8-22.73l10.13,1.48,3.81-26.13-9.95-1.45c-.38-8.74-2.45-17.46-6.29-25.66l8.04-5.9-7.81-10.65-7.82-10.64-8.04,5.9Zm-27.36,75.02c-13.85,10.16-33.3,7.17-43.47-6.68-10.16-13.85-7.17-33.31,6.68-43.47,13.85-10.16,33.31-7.17,43.47,6.67,10.17,13.85,7.17,33.31-6.68,43.47Z"/>
      <path class="cls-9" d="m1279.93,116.06c-23.06,16.92-28.04,49.33-11.12,72.39,16.92,23.06,49.33,28.04,72.39,11.12,23.06-16.92,28.04-49.33,11.12-72.39-16.92-23.05-49.33-28.04-72.4-11.12m49.03,66.83c-13.85,10.16-33.3,7.17-43.47-6.68-10.16-13.85-7.17-33.31,6.68-43.47,13.85-10.16,33.31-7.17,43.47,6.67,10.17,13.85,7.17,33.31-6.68,43.47Z"/>
      <path class="cls-14" d="m1373.51,314.12c-4.09-8.27-9.75-15.45-16.51-21.26l4.78-8.17-22.79-13.33-4.97,8.51c-8.13-2.68-16.83-3.86-25.68-3.27l-2.6-9.65-25.5,6.89,2.6,9.61c-8.18,4.03-15.29,9.58-21.07,16.22l-8.91-5.04-12.98,22.99,8.75,4.94c-2.8,8.29-4.01,17.17-3.38,26.2l-9.63,2.6,3.45,12.75,3.45,12.74,9.63-2.6c4.08,8.28,9.74,15.45,16.5,21.26l-4.78,8.17,22.8,13.32,4.98-8.5c8.13,2.68,16.82,3.86,25.67,3.26l2.61,9.64,25.49-6.89-2.6-9.61c8.18-4.03,15.29-9.59,21.07-16.22l8.92,5.04,12.98-23-8.76-4.94c2.8-8.29,4.01-17.17,3.38-26.2l9.63-2.6-3.45-12.74-3.45-12.75-9.62,2.6Zm-52.58,60.1c-16.58,4.48-33.66-5.33-38.14-21.91-4.48-16.58,5.33-33.65,21.91-38.14,16.58-4.48,33.65,5.33,38.13,21.91,4.48,16.58-5.33,33.65-21.91,38.13Z"/>
      <path class="cls-10" d="m1299.3,294.2c-27.61,7.47-43.94,35.89-36.48,63.51,7.47,27.61,35.9,43.95,63.51,36.48,27.61-7.46,43.95-35.89,36.48-63.51-7.46-27.61-35.9-43.95-63.51-36.48m21.63,80.02c-16.58,4.48-33.66-5.33-38.14-21.91-4.48-16.58,5.33-33.65,21.91-38.14,16.58-4.48,33.65,5.33,38.13,21.91,4.48,16.58-5.33,33.65-21.91,38.13Z"/>
      <path class="cls-12" d="m1466.84,197.09c-7.36-5.57-15.64-9.45-24.27-11.62l.6-9.44-26.35-1.7-.63,9.83c-8.48,1.24-16.78,4.08-24.42,8.58l-6.65-7.46-19.7,17.58,6.62,7.43c-5.51,7.26-9.38,15.42-11.57,23.94l-10.23-.51-1.31,26.37,10.05.5c1.21,8.66,4.1,17.15,8.7,24.95l-7.44,6.64,8.79,9.85,8.78,9.85,7.44-6.64c7.36,5.57,15.63,9.45,24.28,11.62l-.61,9.44,26.35,1.7.64-9.83c8.48-1.24,16.78-4.09,24.42-8.58l6.65,7.46,19.71-17.58-6.62-7.43c5.51-7.26,9.38-15.42,11.57-23.94l10.22.51,1.31-26.38-10.04-.5c-1.21-8.66-4.1-17.15-8.7-24.95l7.44-6.64-8.8-9.86-8.79-9.85-7.44,6.64Zm-20.09,77.28c-12.82,11.43-32.48,10.31-43.91-2.51-11.43-12.82-10.3-32.48,2.51-43.91,12.82-11.43,32.48-10.31,43.9,2.51,11.44,12.82,10.31,32.47-2.5,43.91Z"/>
      <path class="cls-15" d="m1391.57,212.51c-21.34,19.04-23.21,51.77-4.18,73.12,19.04,21.35,51.77,23.22,73.12,4.18,21.34-19.04,23.22-51.77,4.18-73.11-19.04-21.35-51.78-23.22-73.12-4.18m55.17,61.86c-12.82,11.43-32.48,10.31-43.91-2.51-11.43-12.82-10.3-32.48,2.51-43.91,12.82-11.43,32.48-10.31,43.9,2.51,11.44,12.82,10.31,32.47-2.5,43.91Z"/>
      <path class="cls-8" d="m1184.6,264.07c2.54,1.33,6.59,2.67,10.71,2.67,4.44,0,6.79-1.84,6.79-4.63s-2.03-4.18-7.16-5.96c-7.1-2.53-11.79-6.46-11.79-12.67,0-7.29,6.15-12.81,16.16-12.81,4.88,0,8.37.96,10.91,2.16l-2.16,7.73c-1.65-.82-4.75-2.03-8.87-2.03s-6.22,1.97-6.22,4.12c0,2.72,2.34,3.93,7.92,6.02,7.54,2.79,11.03,6.72,11.03,12.74,0,7.16-5.45,13.25-17.17,13.25-4.89,0-9.7-1.33-12.11-2.67l1.96-7.92Z"/>
      <path class="cls-8" d="m1408.37,272.52v-42.72h11.28l8.87,15.66c2.54,4.5,5.01,9.83,6.97,14.64h.12c-.57-5.64-.76-11.41-.76-17.88v-12.42h8.87v42.72h-10.14l-9.12-16.48c-2.53-4.56-5.39-10.08-7.42-15.09h-.25c.32,5.7.44,11.72.44,18.7v12.86h-8.87Z"/>
      <path class="cls-8" d="m1333.36,343.78c0,14.07-8.43,22.51-20.98,22.51s-20.09-9.57-20.09-21.81,8.24-22.37,20.79-22.37,20.28,9.83,20.28,21.67m-30.87.51c0,8.43,3.93,14.33,10.39,14.33s10.27-6.21,10.27-14.52c0-7.73-3.62-14.32-10.27-14.32s-10.39,6.22-10.39,14.51Z"/>
      <path class="cls-8" d="m1295.46,136.96c2.54-.44,7.61-.88,12.49-.88,5.89,0,9.5.57,12.67,2.4,2.98,1.58,5.07,4.5,5.07,8.43s-2.21,7.22-7.03,9.07v.12c4.88,1.27,8.5,5.01,8.5,10.46,0,3.94-1.78,6.97-4.44,9.13-3.1,2.47-8.3,3.86-16.79,3.86-4.76,0-8.31-.32-10.46-.63v-41.96Zm9.57,16.35h3.16c5.14,0,7.8-2.09,7.8-5.26s-2.47-4.94-6.84-4.94c-2.16,0-3.36.12-4.12.25v9.95Zm0,18.95c.95.13,2.09.13,3.74.13,4.37,0,8.24-1.71,8.24-6.21,0-4.25-3.86-5.96-8.68-5.96h-3.3s0,12.04,0,12.04Z"/>
    </g>
  </g>
  <text class="cls-1" transform="translate(102.86 131.11)"><tspan x="0" y="0">Especialista:</tspan></text>
</svg>