<?xml version="1.0" encoding="utf-8"?>
<!-- Generator: Adobe Illustrator 26.3.1, SVG Export Plug-In . SVG Version: 6.00 Build 0)  -->
<svg version="1.1" id="Camada_1" xmlns="http://www.w3.org/2000/svg" xmlns:xlink="http://www.w3.org/1999/xlink" x="0px" y="0px"
	 viewBox="0 0 150 150" style="enable-background:new 0 0 150 150;" xml:space="preserve">
<g id="dJ1Cm2.tif">
	<g>
		<path d="M12.6,84.7c4.4-1.5,5.3-0.9,5.4,3.6c0.1,9.3,0,18.6,0,27.9c0,6.6,2.4,9.1,9,9.1c13.9,0,27.7,0,41.6,0c1,0,2-0.1,2.8-0.2
			c-0.5-5.2-1.2-10.3-1.4-15.4c-0.2-5.7,1.1-11.1,3.7-16.2c3-5.9,7.4-10.2,13.9-12.2c0.7-0.2,1.3-0.5,2-0.7c-0.7-2.3-1.5-4.4-2-6.5
			c-0.9-3.8,0.3-5.2,4.2-5c4.4,0.2,8.4,1.6,12.1,5.6c0.6-2.2,1.3-3.8,1.3-5.4c0.1-14.5,0.1-28.9,0-43.4c0-5.3-2.6-7.8-7.9-7.9
			c-3.7-0.1-7.3,0-10.9,0c-2.3,5.8-2.8,6.1-8.9,6.1c-10.6,0-21.2,0-31.9,0c-6,0-6.7-0.5-8.9-6.1c-3.7,0-7.5-0.1-11.3,0
			C20.5,18.3,18,20.9,18,26c-0.1,8.3,0,16.5,0,24.8c0,4.1,0.1,8.3,0,12.4c-0.1,4.4-1.5,5.1-5.4,2.9c0-14.8,0-29.5,0-44.3
			c3-7,8.3-9.9,15.8-9.3c2.8,0.2,5.6,0,8.6,0c0.9-5.2,4.4-5.9,8.9-5.8C56.3,7,66.8,7,77.3,6.8c4.5-0.1,7.9,0.7,8.9,5.8
			c3.5,0,6.7,0,9.9,0c9.9,0.1,14.6,4.7,14.6,14.7c0,11.4,0,22.7,0,34.1c0,1.2,0.2,2.4,0.2,3c4.9-0.9,9.5-1.9,14.1-2.3
			c3.5-0.3,4.4,1.1,3.8,4.6c-0.8,5.5-3.1,10.4-6.6,14.7c9.7,5.7,14,11.3,15.6,21.8c0.7,4.2,0.5,8.5,0.3,12.8
			c-0.7,14.6-9.2,25.3-23.2,29.3c-0.3,0.1-0.5,0.3-0.7,0.5c-6.8,0-13.6,0-20.4,0c-5.8-1.9-11.5-3.8-15.4-8.9c-1.5-2-3-4-4.6-6.3
			c-1.5,0-3.1,0-4.7,0c-14.4,0-28.9,0-43.3,0c-5.3,0-9.4-2-12.1-6.7c-0.4-0.7-1-1.4-1.4-2.1C12.6,109.6,12.6,97.2,12.6,84.7z
			 M104.1,140c2.2,0,4.4-0.1,6.6,0c7.7,0.2,13.4-3.2,17.2-9.7c6.2-10.6,7.1-21.8,2.5-33.2c-3.6-8.9-10.9-12.7-20.3-10.8
			c-4,0.8-7.7,0.9-11.7,0C89,84.4,81.7,88.1,78.1,97c-4.9,11.8-3.8,23.4,3,34.3c3.6,5.7,9,8.8,15.9,8.7
			C99.4,140,101.8,140,104.1,140z M79.9,18.5c0.1-1.2,0.2-2.1,0.2-2.9c0-1-0.2-2-0.3-3.1c-12.4,0-24.5,0-36.7,0c0,2.1,0,4,0,6
			C55.4,18.5,67.4,18.5,79.9,18.5z M107.4,80.8c9.7-0.4,14.2-4.3,15.1-12.9C114.5,67.9,109.7,71.9,107.4,80.8z M93.3,75.1
			c2.4,5.1,2.7,5.4,7,5.7C99,76.8,98.1,76,93.3,75.1z"/>
		<path d="M12.6,74.1c0.1,0,0.3-0.1,0.4-0.1c1.6-1.1,3.3-1.6,4.5,0.4c0.4,0.7,0.1,2.4-0.5,3.1c-1.6,1.9-3.1,0.5-4.4-0.7
			C12.6,75.9,12.6,75,12.6,74.1z"/>
		<path d="M45.1,115.7c-9.8-0.1-17.6-8.1-17.6-17.9c0.1-9.8,8.2-17.6,18-17.5C55,80.5,62.9,88.4,62.9,98
			C62.9,107.7,54.8,115.7,45.1,115.7z M32.9,97.8c-0.1,6.8,5.6,12.5,12.3,12.5c6.5,0,12.1-5.6,12.2-12.2c0.1-6.5-5.4-12.2-11.9-12.4
			C38.8,85.5,33,91,32.9,97.8z"/>
		<path d="M63,38.9c9.1,0,18.2,0,27.4,0c0.6,0,1.2,0,1.8,0c2.1,0,4.6,0,4.5,2.9c-0.1,2.6-2.4,2.5-4.3,2.5c-19.3,0-38.6,0-57.8,0
			c-0.9,0-1.9,0.1-2.6-0.3c-0.8-0.5-1.6-1.5-1.6-2.3c0-0.8,0.8-2,1.5-2.3c1.2-0.5,2.6-0.5,3.9-0.5C44.8,38.9,53.9,38.9,63,38.9z"/>
		<path d="M57.5,53c6.9,0,13.9,0,20.8,0c0.7,0,1.5,0,2.2,0c2,0,4.2,0.2,4.3,2.7c0.1,2.6-2.1,2.7-4.2,2.7c-4.9,0-9.7,0-14.6,0
			c-9.7,0-19.5,0-29.2,0c-0.6,0-1.2,0-1.8,0c-3.8-0.1-5.2-0.8-4.9-2.8c0.4-2.9,2.8-2.6,4.8-2.6C42.5,53,50,53,57.5,53z"/>
		<path d="M53.4,72.6c-6,0-12.1,0-18.1,0c-1,0-2.2,0.2-3.1-0.2c-0.8-0.3-1.9-1.3-1.9-2c0-1,0.8-2.2,1.6-2.7c0.9-0.5,2.3-0.4,3.4-0.4
			c12.2,0,24.5,0,36.7,0c2.2,0,5-0.3,5,2.8c0,3.2-3,2.6-5.1,2.6C65.7,72.6,59.6,72.6,53.4,72.6z"/>
		<path d="M43.3,97.8c1.9-2,3.4-3.8,5.1-5.4c1.2-1.2,2.6-1.4,3.9-0.2c1.4,1.3,1.1,2.6,0,3.9c-2.2,2.4-4.3,4.8-6.5,7.2
			c-1.5,1.6-3,1.6-4.6,0.2c-0.9-0.8-2-1.5-2.5-2.4c-0.6-1.1-1.2-2.8-0.8-3.8c0.7-1.6,2.4-1.4,3.8-0.5C42.1,96.9,42.6,97.3,43.3,97.8
			z"/>
	</g>
</g>
</svg>
