<?xml version="1.0" encoding="utf-8"?>
<!-- Generator: Adobe Illustrator 26.4.1, SVG Export Plug-In . SVG Version: 6.00 Build 0)  -->
<svg version="1.1" id="Camada_1" xmlns="http://www.w3.org/2000/svg" xmlns:xlink="http://www.w3.org/1999/xlink" x="0px" y="0px"
	 viewBox="0 0 150 150" style="enable-background:new 0 0 150 150;" xml:space="preserve">
<style type="text/css">
	.st0{stroke:#FFFFFF;stroke-width:2;stroke-miterlimit:10;}
</style>
<g>
	<path class="st0" d="M42.1,142c-2.4-0.6-4.8-1-7.1-1.8c-10.7-4-17.4-13.9-17.5-25.5c0-22.4,0-44.8,0-67.3c0-1.1-0.2-1.7-1.4-2.2
		C10.5,43,7,37.7,7,31.8c0-5.9,3.5-11.3,9.1-13.4c1.2-0.5,1.5-1,1.4-2.2c-0.1-3,0-6.1,0-9.2c2.6,0,5.2,0,7.9,0c0,3.1,0.1,6.1,0,9.1
		c0,1.2,0.3,1.8,1.5,2.3c5.5,2.1,9.1,7.5,9.1,13.3c0,5.9-3.6,11.3-9.1,13.4c-1.1,0.4-1.4,0.9-1.4,2.1c0,22.5,0,44.9,0,67.4
		c0,9.7,6.9,17.9,16.1,19.2c11.9,1.7,21.9-6.7,22.3-18.7c0.1-3.5,0-7,0.1-10.6c0-0.9-0.4-1.1-1.1-1.4c-6-2.4-12-4.9-18.1-7.3
		c-1.2-0.5-1.6-1.1-1.6-2.4c0.1-5.8,0-11.6,0-17.4c0-0.5,0-1,0-1.6c-1.4,0-2.8,0-4.2,0c0-2.7,0-5.3,0-7.9c0.2,0,0.5,0,0.7,0
		c5.2,0,10.4,0,15.7,0c0,2.6,0,5.2,0,7.9c-1.4,0-2.7,0-4.2,0c0,0.5-0.1,1-0.1,1.4c0,4.3,0,8.5,0,12.8c0,0.9,0.2,1.4,1.1,1.7
		c3.8,1.5,7.6,3.1,11.6,4.7c0-29.4,0-58.7,0-88c17.1,0,34,0,51.1,0c0,6.3,0,12.6,0,19c3.8,0,7.4,0,11.2,0c0-1.2,0-2.5,0-3.8
		c2.7,0,5.2,0,7.9,0c0,1.3,0,2.5,0,3.9c2.6,0,5,0,7.5,0c0,0.6,0,1,0,1.5c0,25.6,0,51.2,0,76.8c0,9.2-6.4,15.7-15.6,15.7
		c-1.9,0-3.1,0.3-4,2.3c-1.1,2.5-3.2,4.3-5.8,5.3c-1,0.4-1.2,1-1.2,2c0.1,4,0,7.9,0,12c-2.6,0-5.2,0-7.9,0c0-0.5,0-1,0-1.5
		c0-3.6,0-7.3,0-10.9c0-0.7-0.2-1.1-0.9-1.4c-3.1-1.3-5.4-3.6-6.7-6.7c-0.4-0.9-0.9-1.1-1.7-1c-3.3,0.1-6.6-0.2-9.5-1.9
		c-5.3-3.2-7.8-7.9-7.8-14c0-25.5,0-51,0-76.5c0-0.5,0-0.9,0-1.5c2.6,0,5,0,7.5,0c0-1.3,0-2.6,0-4c2.7,0,5.3,0,7.9,0
		c0,1.3,0,2.5,0,3.9c3.8,0,7.4,0,11.1,0c0-3.7,0-7.4,0-11.2c-11.7,0-23.4,0-35.2,0c0,0.6,0,1.2,0,1.8c0,32.4,0,64.8,0,97.2
		c0,10.7-4.6,18.9-13.8,24.5c-3,1.8-6.4,2.9-9.9,3.3c-0.2,0-0.5,0.2-0.7,0.2C45.6,142,43.8,142,42.1,142z M88.3,68.6
		c0,0.5,0,0.9,0,1.4c0,11.4,0,22.9,0,34.3c0,0.6,0,1.1,0.1,1.7c0.5,3,2.1,5,5,5.9c1.3,0.4,2.8,0.2,4.2,0.4c1,0.1,1.5-0.3,1.9-1.2
		c2.2-4.7,6-7.3,11.2-7.4c5.2-0.1,9.1,2.3,11.5,7c0.7,1.3,1.3,2,2.7,1.7c0.2,0,0.4,0,0.7,0c5.1,0,8-2.9,8-8c0-11.4,0-22.8,0-34.2
		c0-0.5,0-0.9,0-1.5C118.5,68.6,103.5,68.6,88.3,68.6z M133.6,60.6c0-8.9,0-17.7,0-26.5c-15.1,0-30.1,0-45.1,0c0,8.9,0,17.7,0,26.5
		C103.6,60.6,118.5,60.6,133.6,60.6z M21.4,38.3c3.7,0,6.7-2.9,6.7-6.6c0-3.6-3-6.5-6.5-6.6c-3.6,0-6.6,2.9-6.6,6.5
		C14.8,35.3,17.7,38.3,21.4,38.3z M115.7,116.3c0-2.7-2.1-4.8-4.7-4.8c-2.6,0-4.7,2.1-4.7,4.7c0,2.6,2.1,4.8,4.8,4.8
		C113.7,120.9,115.7,118.9,115.7,116.3z"/>
</g>
</svg>
