<?xml version="1.0" encoding="utf-8"?>
<!-- Generator: Adobe Illustrator 26.3.1, SVG Export Plug-In . SVG Version: 6.00 Build 0)  -->
<svg version="1.1" id="Camada_1" xmlns="http://www.w3.org/2000/svg" xmlns:xlink="http://www.w3.org/1999/xlink" x="0px" y="0px"
	 viewBox="0 0 150 150" style="enable-background:new 0 0 150 150;" xml:space="preserve">
<g id="X9svs4.tif">
	<g>
		<path d="M69.9,3c5.5,2.3,11.1,4.4,16.4,7c6.9,3.4,10.7,10.5,10,18.1c-0.5,5.4-1.2,10.8-1.7,16.1c-0.1,1.4-0.1,2.9,0.3,4.2
			c4.2,15.2,6.7,30.7,7.9,46.4c0.4,5.7,1.6,11.4,2.5,17c1.2,7.8,2.5,15.6,3.8,23.4c0.8,5.1-1.6,9.6-6.2,11.6
			c-4.3,1.9-9.5,0.4-12.5-3.5c-1.7-2.3-1.9-5-2.4-7.7c-1.7-10.7-3.4-21.4-5.4-32.1c-0.2,0.4-0.4,0.8-0.5,1.3
			c-4.4,11.8-8.8,23.7-13.3,35.5c-2.7,7.3-10.6,9.7-16.6,5c-3.6-2.8-4.8-7.7-3-12.3c4.1-10.8,8.2-21.6,12.3-32.4
			c0.2-0.4,0.3-0.9,0.5-1.4c-2.9-0.7-4.6-2.8-6.3-5c-3.3-4.4-6.7-8.8-10-13.2c-5.1-6.8-4-15.4,2.7-20.7c4.6-3.6,9.3-7.3,13.8-10.9
			c1.8-1.4,3.8-2.4,6-2.9c2.5-0.6,4.9-1.2,7.4-1.9c0.5-0.1,1.2-0.8,1.2-1.2c0.6-5.4,1.2-10.8,1.8-16.1c0.1-1.1-0.2-1.7-1.3-2.1
			c-3.9-1.6-7.9-3.3-11.8-5c-3.8-1.6-6-5-5.8-8.7c0.2-4.1,2.7-7,6.9-8.2c0.1,0,0.2-0.1,0.3-0.2C68,3,68.9,3,69.9,3z M89.5,26.8
			c-0.1-4.7-1.9-8.4-6-10.5c-3-1.6-6.2-2.8-9.4-4.2c-1.6-0.7-3.2-1.4-4.8-2c-1.1-0.4-2-0.2-2.5,0.9c-0.5,1.1-0.2,2,0.9,2.6
			c0.3,0.2,0.7,0.3,1,0.5c3.9,1.7,7.8,3.4,11.8,5.1c3.8,1.7,5.4,4.6,5,8.7c-0.6,5.4-1.2,10.8-1.7,16.1c-0.4,4.1-2.4,6.4-6.4,7.4
			c-2.5,0.6-5.1,1.2-7.6,2c-1.1,0.3-2.1,0.8-3,1.4c-4.7,3.6-9.3,7.3-14,11c-3.8,3-4.4,7.3-1.5,11.2c3.6,4.8,7.3,9.7,11,14.5
			c0.3,0.3,0.5,0.7,0.9,0.9c0.8,0.5,1.3,0.5,1.8-0.6c0.8-1.6,0.6-2.8-0.5-4.2c-2.7-3.2-5.1-6.6-7.6-10c-2.5-3.4-2.6-7.4,0.1-9.9
			c2.9-2.6,6-5,9.1-7.3c1.6-1.2,3.8-0.6,4.7,1.1c5,8.8,5.8,18,2.4,27.5c-3.6,10-7.6,19.9-11.4,29.9c-2.1,5.6-4.2,11.2-6.4,16.7
			c-0.6,1.5-0.3,2.8,0.7,4c0.9,1.1,2.1,1.3,3.5,1c1.5-0.3,2.2-1.4,2.7-2.8c2.5-6.7,5-13.5,7.5-20.2c3.6-9.6,7.1-19.2,10.7-28.8
			c0.7-1.9,2-2.8,3.5-2.7c1.7,0.1,2.9,1.3,3.2,3c1.2,7.6,2.5,15.2,3.7,22.8c1.3,8.4,2.7,16.7,4.1,25.1c0.1,0.8,0.4,1.6,0.8,2.2
			c1,1.4,2.8,1.8,4.3,1.2c1.6-0.7,2.4-2.4,2.1-4.5c-2.6-17.2-5.9-34.2-7.4-51.5c-1-11.6-3.5-23-6.6-34.2c-0.7-2.5-0.7-4.9-0.4-7.4
			C88.4,37.5,89,32.1,89.5,26.8z M66.6,68.5c-1.5,1.2-2.9,2.3-4.2,3.3c-0.7,0.5-0.7,1-0.2,1.6c1.6,2,3.1,4,4.6,6
			c0.4,0.5,0.8,1,1.3,1.7C68.6,76.6,68.2,72.6,66.6,68.5z"/>
		<path d="M44.7,33.4c0.2-7.4,6-13.1,13.3-13.1c7.4,0,13.3,6.2,13.2,13.4c-0.2,7.5-6.3,13.4-13.5,13.1
			C50.3,46.6,44.5,40.6,44.7,33.4z M64.3,33.6c0-3.6-2.9-6.5-6.4-6.4c-3.6,0-6.4,2.9-6.4,6.5c0,3.5,2.9,6.3,6.4,6.4
			C61.4,40.1,64.3,37.2,64.3,33.6z"/>
	</g>
</g>
</svg>
