<?xml version="1.0" encoding="utf-8"?>
<!-- Generator: Adobe Illustrator 26.3.1, SVG Export Plug-In . SVG Version: 6.00 Build 0)  -->
<svg version="1.1" id="Camada_1" xmlns="http://www.w3.org/2000/svg" xmlns:xlink="http://www.w3.org/1999/xlink" x="0px" y="0px"
	 viewBox="0 0 150 150" style="enable-background:new 0 0 150 150;" xml:space="preserve">
<g id="Y5KAgq.tif">
	<g>
		<path d="M82.9,146.9c-0.8-2.2-2.3-4.4-2.4-6.7c-0.2-12.6,0-25.3-0.2-37.9c-0.1-6.2,2.3-10.5,7.5-13.8c6.8-4.3,13.5-8.8,20.1-13.4
			c4.4-3,8.7-5.5,14.8-3.7c0-6.6,0-12.6,0-18.7c0-9,2.9-13.7,9.6-15.4c6.3-1.7,11.4,1.2,15.6,8.7c0,15,0,30,0,45
			c-2.3,9-7.9,15.6-15.1,21.2c-4.2,3.2-7.7,7.2-12,10.2c-5.3,3.6-7.3,8-6.6,14.3c0.4,3.5,0.8,7.2-2.1,10.1
			C102.3,146.9,92.6,146.9,82.9,146.9z M105.7,138.3c0-3.1,0.2-5.7-0.1-8.3c-0.4-4,1.1-6.7,4.2-9.3c7.4-6.1,14.5-12.5,21.8-18.7
			c5.2-4.5,8-10.2,7.9-17.1c0-11.2-0.1-22.5,0-33.7c0-3-0.8-5.6-4.1-5.6c-3.5-0.1-4.4,2.5-4.4,5.7c0.1,10.4,0,20.8,0,31.2
			c0,5.1-2,9.1-6.2,12c-6.6,4.4-13.2,8.7-19.7,13.2c-2.6,1.8-5.2,2.5-7.2-0.5c-1.9-2.9,0-4.9,2.4-6.5c6.4-4.2,12.7-8.5,19-12.7
			c2.4-1.6,4.4-3.4,2.5-6.4c-2-3.1-4.5-2.4-7.2-0.6c-7.5,5.1-14.9,10.1-22.5,15c-2.7,1.7-3.6,3.8-3.6,6.9c0.1,10.7,0,21.4,0.1,32.1
			c0,1.2,0.2,2.4,0.2,3.6C94.7,138.3,99.9,138.3,105.7,138.3z"/>
		<path d="M40.3,146.9c-0.9-2.1-2.9-4.5-2.6-6.4c1.6-9.3-2.3-15.4-9.6-20.5c-5.1-3.6-9.6-8-14.2-12.2C7.1,101.7,3.7,94.1,3.7,85
			c0-11.4,0-22.8,0-34.2c0-8.2,5.3-14,12.8-13.9C23.8,37,28.9,42.5,29,50.6c0.1,6.6,0,13.3,0,20.6c7.7-2.1,12.8,2.6,18.3,6.3
			c5.9,3.9,11.8,7.9,17.7,11.8c4.3,2.8,6.4,6.7,6.4,11.9c-0.1,13.2,0.1,26.4-0.1,39.6c0,2.1-1.6,4.1-2.5,6.1
			C59.2,146.9,49.8,146.9,40.3,146.9z M62.9,138.3c0-12.8,0.1-25.2-0.1-37.5c0-1.6-1.7-3.7-3.2-4.8c-7.4-5.2-15-10.1-22.4-15.1
			c-2.6-1.7-5.2-2.8-7.2,0.3c-2.1,3.1,0,5.1,2.5,6.8c6.3,4.1,12.5,8.3,18.7,12.4c2.5,1.7,4.7,3.6,2.5,6.8c-2.1,3-4.7,2-7.2,0.3
			C40.2,103.2,34,99,27.7,95c-5.1-3.2-7.3-7.6-7.2-13.6c0.2-10.1,0.2-20.3-0.1-30.4c0-1.8-1.1-4.1-2.5-5.1c-2.8-1.9-5.8,0.7-5.8,4.9
			c-0.1,11,0.1,21.9-0.1,32.9c-0.1,7.6,2.6,13.7,8.4,18.6c7.5,6.4,14.8,13,22.4,19.3c2.3,2,3.4,4.1,3.2,7.2c-0.2,3.1,0,6.2,0,9.4
			C51.9,138.3,57.1,138.3,62.9,138.3z"/>
		<path d="M71.7,61.9c-2.9,0-5.4,0-8.5,0c0,3.7,0,7.4,0,11.1c0,3-0.8,5.5-4.2,5.5c-3.3,0-4.2-2.5-4.3-5.4
			c-0.9-16.3,0.5-32.2,9.1-46.7c1.8-3.1,5.3-5.2,7.1-8.3c1.7-3.1,1.6-7.2,3.4-10.2c2.7-4.6,7.6-6,12.7-5c5.1,0.9,8.4,4.3,9.7,9.2
			c1.3,5-0.3,9.3-4.1,12.8c-1.3,1.2-3.7,2.5-3.7,3.8c-0.1,3.2,0.4,6.7,1.6,9.6c1.6,4,5.3,5.9,9.6,6.4c2.6,0.3,5.2,0.8,5.4,4
			c0.2,3.2-1.9,4.2-4.7,4.7c-2.8,0.5-3.7,2.5-3.7,5.2c0.1,4.9,0,9.7,0,14.6c0,3.1-1,5.4-4.4,5.3c-3.1-0.1-4.1-2.3-4-5.2
			c0.2-7.5,0.3-15.1,0.5-22.6c0.4,0,0.8,0,1.2,0c-2.2-2.1-4.3-4.1-7.4-7c-1,4.9-2.2,9.1-2.6,13.4c-0.4,5.4-0.1,10.8-0.1,16.2
			c0,3-1.1,5.4-4.4,5.3c-3.2-0.1-4.1-2.4-4.1-5.2C71.7,69.6,71.7,65.9,71.7,61.9z M62.5,53c4.1,0,6.6,0,8.4,0
			c3-7.3,5.7-14.1,8.6-20.8c1.1-2.6,0.8-4.8-1.7-6c-2.7-1.3-4.8-0.1-6,2.6c-1,2.3-2.1,4.5-3,6.8C66.7,41.2,64.8,46.7,62.5,53z
			 M83.2,20c0.6,0,1.3,0.1,1.9,0.1c1.2-1.6,3.4-3.3,3.2-4.8c-0.2-1.6-2.4-3.7-4-4c-1.1-0.2-3.7,2.2-3.8,3.6
			C80.3,16.5,82.2,18.3,83.2,20z"/>
	</g>
</g>
</svg>
