<?xml version="1.0" encoding="utf-8"?>
<!-- Generator: Adobe Illustrator 26.4.1, SVG Export Plug-In . SVG Version: 6.00 Build 0)  -->
<svg version="1.1" id="Camada_1" xmlns="http://www.w3.org/2000/svg" xmlns:xlink="http://www.w3.org/1999/xlink" x="0px" y="0px"
	 viewBox="0 0 150 150" style="enable-background:new 0 0 150 150;" xml:space="preserve">
<style type="text/css">
	.st0{stroke:#FFFFFF;stroke-miterlimit:10;}
</style>
<g>
	<path class="st0" d="M7.8,117.2c2.4-4.4,4.7-8.9,7.2-13.2c5.1-8.9,10.3-17.8,15.4-26.8c0.2-0.3,0.3-0.6,0.5-0.9
		c0.8-1.2,2.2-1.6,3.5-0.9c1.2,0.7,1.7,2.2,1,3.5c-0.8,1.6-1.7,3.1-2.7,4.8c1.6,0,3,0,4.3,0c3.8,0,7.6,0,11.4,0
		c0.5,0,1.1-0.1,1.5-0.4c3.7-2.6,7.8-4.2,12.3-4.7c0.3,0,0.5-0.1,0.5-0.1c-0.7-2.4-1.5-4.7-1.9-7.1c-0.5-3.2,0.3-6.3,1.8-9.1
		c0.6-1.1,1.5-1.5,2.7-1.5c8.6,0,15.9,7.7,15.4,16.3c0,0.5-0.1,1-0.1,1.7c1.1-0.1,2-0.3,3-0.3c5.9-0.3,11.4,1.2,16.3,4.6
		c0.4,0.3,1,0.6,1.5,0.6c5.2,0,10.3,0,15.5,0c0.1,0,0.2-0.1,0.5-0.1c-0.2-0.4-0.4-0.8-0.6-1.2c-5.8-10.1-11.7-20.2-17.5-30.3
		c-0.4-0.8-0.9-1.1-1.8-1.1c-14.9,0-29.8,0-44.7,0c-1,0-1.5,0.3-1.9,1.1c-1.1,2-2.2,4-3.4,5.9c-0.9,1.6-2.4,2.1-3.8,1.3
		c-1.3-0.8-1.7-2.3-0.8-3.9C51.3,41.2,59.6,26.7,68,12.3c3.4-5.9,11.1-5.7,14.5,0.3C92,29.1,101.5,45.5,111,62
		c10,17.3,20,34.6,30,51.9c1.7,3,2.1,5.9,0.3,9c-1.6,2.8-4.2,4.1-7.4,4.1c-9.1,0-18.2,0-27.2,0c-1,0-1.6,0.3-2.2,1.2
		c-3.3,5.5-7.4,10.1-13.4,12.8c-1.8,0.8-3.8,1.2-5.7,1.8c-1.3,0-2.6,0-3.9,0c-2-0.7-4-1.4-6-2.1c-0.2-0.1-0.5,0-0.7,0
		c-2,0.7-3.9,1.4-5.9,2c-1.4,0-2.8,0-4.2,0c-2.2-0.8-4.5-1.3-6.6-2.4c-5.4-2.7-9.2-7.2-12.2-12.3c-0.5-0.9-1.1-1.2-2.1-1.1
		c-9.1,0-18.2,0-27.3,0c-3.8,0-6.7-2-8-5.3c-0.2-0.5-0.4-1-0.6-1.6C7.8,119.2,7.8,118.2,7.8,117.2z M44.6,105.6
		c0,6,1.6,12.4,4.4,17.7c2.6,5.1,6,9.5,11.1,12.3c4.4,2.5,8.9,2.7,13.3-0.2c1.3-0.8,2.4-0.8,3.7,0.1c3.9,2.6,8.1,2.7,12.2,0.6
		c4.9-2.4,8.3-6.3,10.9-10.9c4.5-7.9,6.7-16.4,4.7-25.5c-2.9-13.1-16.2-19.4-28.3-13.6c-1.1,0.5-2.1,0.4-3.1-0.1
		c-8.2-4.2-18.3-2-24,5.2C46,95.6,44.7,100.6,44.6,105.6z M95.6,45.9c-0.3-0.6-0.5-1-0.7-1.3c-5.6-9.7-11.2-19.4-16.8-29.1
		c-1.7-2.9-4.2-2.9-5.9,0c-5.6,9.7-11.3,19.5-16.9,29.2c-0.2,0.4-0.4,0.7-0.6,1.2C68.4,45.9,81.9,45.9,95.6,45.9z M42.5,121.7
		c-4.1-11.2-4.8-22,1.9-32.6c-4.8,0-9.5,0-14.2,0c-0.4,0-0.8,0.5-1.1,0.9c-5.1,8.8-10.2,17.7-15.3,26.5c-1.7,2.9-0.4,5.1,3,5.1
		c8.1,0,16.3,0,24.4,0C41.6,121.7,42,121.7,42.5,121.7z M105.9,89.1c6.6,10.6,5.9,21.5,1.9,32.6c8.9,0,17.7,0,26.5,0
		c2.4,0,3.6-2.5,2.4-4.7c-5.2-9.1-10.4-18.1-15.7-27.2c-0.2-0.3-0.7-0.7-1.1-0.7C115.3,89.1,110.7,89.1,105.9,89.1z M74.7,80.3
		c2.5-5.3-0.7-11.9-6.6-13.7c-1.5-0.5-1.6-0.4-1.9,1.1C64.9,73.6,68.6,79.1,74.7,80.3z"/>
	<path class="st0" d="M41.7,67.4c0,1.4-1.2,2.7-2.6,2.7c-1.4,0-2.6-1.2-2.6-2.6c0-1.4,1.2-2.7,2.6-2.7C40.5,64.9,41.7,66,41.7,67.4z
		"/>
</g>
</svg>
